<svg width="296" height="50" viewBox="0 0 296 50" fill="none" xmlns="http://www.w3.org/2000/svg">
<path d="M2.62572 8.71923L3.39516 7.8971L4.20986 8.71923H4.34564L5.28104 7.73725L4.30038 6.76288H4.17969L3.39516 7.56216L2.58046 6.76288H2.45976L1.50928 7.73725L2.48994 8.71923H2.62572Z" fill="white"/>
<path d="M2.00693 15.952C2.51134 15.9524 3.00655 15.8157 3.44045 15.5561C3.53099 15.2363 3.59135 14.9166 3.65171 14.612C3.89314 16.3022 4.48164 16.9875 5.84725 16.9875H32.0354C33.754 16.9624 35.4616 16.7064 37.1131 16.2261L38.3203 15.8759L38.6975 14.3532L38.6221 14.2923L37.43 14.5968C35.5136 15.0841 33.5519 14.4445 33.5519 13.272C33.5519 12.328 34.5177 11.9016 35.4532 11.9016C36.2888 11.8966 37.1037 12.1636 37.777 12.663L38.0637 12.3127C37.4752 11.0336 36.7208 10.3484 35.7399 10.3484C34.3215 10.3484 32.9936 11.9168 32.9936 13.5918C32.9932 13.9388 33.0672 14.2817 33.2104 14.5971C33.3537 14.9125 33.5628 15.1929 33.8235 15.4191C33.3256 15.4648 32.7371 15.48 32.0882 15.48H6.21695C5.03996 15.48 4.70798 15.0232 4.57218 13.6527L4.1044 9.61752H3.68188L3.18392 10.8814L1.94657 11.7036C0.543229 12.663 0 13.3177 0 14.2618C0 15.2059 0.799754 15.952 2.00693 15.952ZM1.6146 12.8152L3.30464 11.9777L3.60644 14.0791C3.10276 14.3007 2.55601 14.4048 2.00693 14.3836C1.16191 14.3836 0.603588 14.1704 0.603588 13.805C0.603588 13.4395 0.935561 13.1502 1.6146 12.8152Z" fill="white"/>
<path d="M43.2158 17.0053H54.4426C54.9898 16.9787 55.5161 16.7849 55.9515 16.4495C56.0572 16.1602 56.1175 15.8861 56.193 15.612C56.3891 16.4419 57.1964 17.0053 58.4112 17.0129H61.6781C61.9981 16.9987 62.3122 16.9207 62.6022 16.7835C62.8923 16.6463 63.1526 16.4526 63.3681 16.2135C64.4582 16.9146 65.7273 17.2797 67.0198 17.2641C68.4689 17.292 69.9094 17.0333 71.26 16.5028C71.9642 16.8495 72.7401 17.0218 73.5235 17.0053C74.4388 16.9945 75.3337 16.7312 76.1114 16.2439C76.3838 15.567 76.5222 14.8428 76.5188 14.1121V8.29535L77.2733 7.71672V7.67104L76.5188 6.7498V5.65344H76.2019C75.2437 6.30821 75.0325 7.06957 75.5304 7.86899L75.7568 15.1019C75.178 15.3222 74.5646 15.4356 73.946 15.4369C73.4814 15.4322 73.0177 15.3966 72.5577 15.3303C72.766 14.8175 72.8785 14.2703 72.8897 13.7162C72.8988 13.3929 72.8434 13.0711 72.7268 12.7698C72.6103 12.4685 72.4349 12.1939 72.211 11.9624C71.9872 11.7309 71.7196 11.5471 71.424 11.422C71.1285 11.2969 70.811 11.233 70.4905 11.2342C68.9211 11.2342 67.3669 12.4828 65.3751 15.4369C65.0117 15.3377 64.6582 15.2052 64.3188 15.041L65.0733 13.9599L64.6809 13.6705L64.1302 14.3862C63.8754 14.7667 63.5215 15.0689 63.1076 15.2597C62.6936 15.4504 62.2355 15.5223 61.7837 15.4673H58.8488C57.536 15.4673 57.1134 15.1933 57.1134 14.2644V12.8635H56.5853L56.2232 15.0714C55.686 15.3434 55.0879 15.4694 54.4878 15.4369H43.5478C42.2501 15.4369 41.7974 15.0867 41.7974 14.0969V5.65344H41.3145L40.5601 7.13048L40.7562 14.1274C40.8468 16.2592 41.4956 17.0053 43.2158 17.0053ZM69.8039 12.8026C70.3562 12.834 70.886 13.0345 71.3227 13.3772C71.7593 13.7199 72.0823 14.1887 72.2484 14.7212C70.6283 15.3813 68.8952 15.7125 67.1481 15.6957C66.7478 15.6929 66.3487 15.6521 65.956 15.5739C67.4197 13.6249 68.5363 12.8026 69.8039 12.8026Z" fill="white"/>
<path d="M56.9109 11.7042L57.8463 10.7146L56.8656 9.74026H56.7449L55.7944 10.7146L56.7751 11.7042H56.9109Z" fill="white"/>
<path d="M79.9547 17.0049L80.4225 15.2691V5.65344H79.9396L79.2153 7.12281L79.4719 17.0049H79.9547Z" fill="white"/>
<path d="M86.654 10.0444L87.4235 9.22225L88.2306 10.0444H88.374L89.3018 9.05478L88.3212 8.08041H88.208L87.4235 8.88731L86.6088 8.08041H86.4881L85.5376 9.05478L86.5183 10.0444H86.654Z" fill="white"/>
<path d="M87.349 17.2468C88.8577 17.2468 89.7252 16.1354 89.7252 14.4303C89.7252 12.9078 89.0161 12.0248 86.3532 10.8373L86.2929 10.883V12.4054C85.6018 13.1563 85.1865 14.1235 85.1161 15.1458C85.1007 15.4391 85.1491 15.7323 85.2581 16.0046C85.367 16.2769 85.5338 16.5219 85.7466 16.7222C85.9595 16.9225 86.2133 17.0732 86.4901 17.1639C86.767 17.2545 87.0601 17.2828 87.349 17.2468ZM86.9114 12.8622C88.5559 13.6234 89.1745 14.2171 89.1745 14.7348C89.1745 15.2524 88.5333 15.6787 87.447 15.6787C86.3608 15.6787 85.712 15.3133 85.712 14.7196C85.7811 14.3456 85.9226 13.989 86.1284 13.6703C86.3342 13.3516 86.6003 13.077 86.9114 12.8622Z" fill="white"/>
<path d="M89.71 19.2397V19.7117L92.5618 20.6406C93.8469 19.0683 94.5933 17.1186 94.6894 15.0828C94.6343 13.897 94.2586 12.7491 93.603 11.7634H93.1805L92.6524 13.0881C93.7388 14.4281 94.1009 15.0981 94.1009 15.9355C94.1009 17.3516 92.5165 18.5393 89.71 19.2397Z" fill="white"/>
<path d="M97.3302 17.0049L97.7979 15.2691V5.65344H97.3151L96.5908 7.12281L96.8473 17.0049H97.3302Z" fill="white"/>
<path d="M102.664 15.0993C102.609 13.9134 102.233 12.7655 101.578 11.7798H101.155L100.627 13.1046C101.714 14.4445 102.076 15.1145 102.076 15.9519C102.076 17.3528 100.499 18.5405 97.6924 19.2409V19.7129L100.544 20.6417C101.821 19.0712 102.564 17.1283 102.664 15.0993Z" fill="white"/>
<path d="M101.245 10.6232L102.18 9.63358L101.199 8.65921H101.079L100.136 9.63358L101.109 10.6232H101.245Z" fill="white"/>
<path d="M108.76 14.9485C108.76 12.9082 107.749 11.2332 106.496 11.2332C105.395 11.2332 104.233 12.8625 104.233 14.4004C104.206 14.6717 104.239 14.9456 104.33 15.2025C104.42 15.4594 104.566 15.6929 104.756 15.8864C104.946 16.08 105.177 16.2286 105.43 16.3218C105.684 16.415 105.955 16.4504 106.225 16.4255C106.712 16.4414 107.195 16.3313 107.628 16.1058L108.065 14.9638C108.126 15.2129 108.157 15.4686 108.156 15.7251C108.156 17.4609 106.315 18.6791 103.101 19.2425V19.7145L105.938 20.6433C107.585 19.1939 108.599 17.1476 108.76 14.9485ZM106.383 14.8572C105.402 14.8572 104.829 14.6288 104.829 14.0959C104.832 13.7575 104.964 13.4332 105.197 13.1897C105.43 12.9462 105.746 12.8019 106.081 12.7864C106.836 12.7864 107.635 13.6238 107.982 14.644C107.464 14.803 106.924 14.875 106.383 14.8572Z" fill="white"/>
<path d="M4.17969 24.0854L3.39516 24.8923L2.58046 24.0854H2.45976L1.50928 25.0597L2.48994 26.0493H2.62572L3.39516 25.2272L4.20986 26.0493H4.34564L5.28104 25.0597L4.30038 24.0854H4.17969Z" fill="white"/>
<path d="M22.1046 35.6938H21.9839L21.1994 36.5007L20.3847 35.6938H20.264L19.3135 36.6682L20.2941 37.6578H20.4299L21.1994 36.8357L22.0141 37.6578H22.1498L23.0852 36.6682L22.1046 35.6938Z" fill="white"/>
<path d="M29.3721 34.3232H32.39C33.354 34.3071 34.3014 34.0674 35.159 33.6227C35.4242 32.9362 35.5573 32.2049 35.5513 31.4681C35.515 30.6271 35.2543 29.8117 34.7968 29.1079H34.3743L33.8462 30.4326C34.3405 30.974 34.7205 31.6112 34.9628 32.3056C34.151 32.6263 33.2843 32.7815 32.4127 32.7624H23.4645C22.1517 32.7624 21.7292 32.4883 21.7292 31.5594V30.189H21.2463L20.8841 32.3969C20.347 32.669 19.7489 32.7949 19.1488 32.7624H6.21695C5.03996 32.7624 4.70798 32.3056 4.57218 30.9351L4.1044 26.8999H3.68188L3.18392 28.1638L1.94657 29.0317C0.543229 29.991 0 30.6458 0 31.5899C0 32.534 0.799754 33.2801 2.00693 33.2801C2.51134 33.2805 3.00655 33.1438 3.44045 32.8842C3.53099 32.5644 3.59135 32.2447 3.65171 31.9401C3.89314 33.6227 4.48164 34.3079 5.84725 34.3079H19.096C19.6569 34.2927 20.1985 34.0981 20.6427 33.7522C20.7483 33.4704 20.8087 33.1964 20.8841 32.9223C21.0803 33.7522 21.8876 34.3156 23.1023 34.3156H29.3419L29.3721 34.3232ZM2.00693 31.7117C1.16191 31.7117 0.603588 31.4985 0.603588 31.1331C0.603588 30.7676 0.935561 30.4783 1.6146 30.1433L3.30464 29.3058L3.60644 31.4072C3.10276 31.6288 2.55601 31.7329 2.00693 31.7117Z" fill="white"/>
<path d="M33.3853 26.9606L34.3659 27.9502H34.5017L35.4371 26.9606L34.4564 25.9862H34.3357L33.3853 26.9606Z" fill="white"/>
<path d="M66.6967 22.9719H66.2741C65.3084 23.6267 65.0971 24.388 65.5951 25.1951L65.8214 32.4281C65.2453 32.6484 64.6344 32.7619 64.0182 32.7631C63.6861 32.803 63.3503 32.7304 63.0635 32.5568C62.7767 32.3831 62.5552 32.1182 62.4338 31.8038L62.1018 31.1338C61.4982 29.9765 61.0908 29.611 60.4419 29.611C59.446 29.611 58.5104 30.814 58.1784 32.3824C57.7321 32.6194 57.2341 32.7399 56.7298 32.7326C55.8597 32.7862 55.0004 32.5153 54.3154 31.9713C55.0699 31.3165 55.4321 30.8292 55.4321 30.3115C55.4321 29.4283 54.7379 28.941 53.6364 28.941C52.9653 28.964 52.31 29.1522 51.7275 29.4892L51.305 30.8444L51.486 31.2403C51.7816 31.2227 52.0766 31.2838 52.3414 31.4174C52.6063 31.5511 52.8316 31.7525 52.995 32.0017L53.0403 32.0779C52.2418 32.5157 51.346 32.741 50.4373 32.7326H44.424C43.2772 32.7326 42.7188 32.1844 42.1605 30.4485L41.0665 27.2356H40.6591L40.1309 28.5603L41.1947 31.2251C41.3758 31.6667 41.5418 32.0474 41.7078 32.3824C41.079 32.7828 40.3459 32.9844 39.6028 32.961C38.2447 32.961 37.8825 32.7174 37.8222 31.7733V31.5297H37.3695C37.2506 31.9464 37.1797 32.3756 37.1582 32.8088C37.1582 33.9432 37.8222 34.5066 39.301 34.5066C40.1514 34.5334 40.9851 34.2646 41.6625 33.7452C41.752 33.4326 41.8226 33.1148 41.8738 32.7935H41.9342C42.5604 33.9051 43.1942 34.3163 44.1071 34.3163H50.3619C51.5605 34.1923 52.6799 33.6544 53.5307 32.7935C53.8589 33.2688 54.2971 33.6559 54.8073 33.9213C55.3175 34.1867 55.8842 34.3223 56.4582 34.3163C57.108 34.3074 57.7356 34.0766 58.2388 33.6615C59.3234 34.1856 60.477 34.5497 61.6642 34.7426C61.8092 34.3661 61.9351 33.9824 62.0414 33.593C62.241 33.8423 62.4979 34.0385 62.7899 34.1646C63.0818 34.2906 63.3999 34.3427 63.7164 34.3163C64.6328 34.3163 65.5322 34.0663 66.3194 33.593C66.5918 32.916 66.7302 32.1918 66.7268 31.4611V25.6519L67.4813 25.0733V25.0428L66.7268 24.1139L66.6967 22.9719ZM58.7669 32.291C58.8209 31.9888 58.9708 31.7125 59.194 31.5038C59.4172 31.2951 59.7016 31.1652 60.0043 31.1338C60.4419 31.1338 60.7588 31.3926 61.1813 32.154L61.5284 32.8088C61.5971 32.9396 61.6726 33.0667 61.7547 33.1894C60.726 33.0149 59.7225 32.7131 58.7669 32.291Z" fill="white"/>
<path d="M70.0309 34.3233L70.4986 32.5951V22.9719H70.0158L69.2915 24.4489L69.548 34.3233H70.0309Z" fill="white"/>
<path d="M77.4185 34.5665C78.9272 34.5665 79.8022 33.4627 79.8022 31.7575C79.8022 30.2351 79.0931 29.3521 76.4303 28.1646L76.3699 28.2102V29.7327C75.682 30.4796 75.2669 31.4409 75.1931 32.4579C75.1754 32.7514 75.2219 33.0453 75.3295 33.3186C75.437 33.5919 75.6029 33.8379 75.8154 34.0392C76.0278 34.2405 76.2816 34.3921 76.5586 34.4833C76.8357 34.5744 77.1293 34.6028 77.4185 34.5665ZM76.9583 30.1894C78.5953 30.9506 79.2214 31.5444 79.2214 32.062C79.2214 32.5797 78.5726 33.0059 77.4864 33.0059C76.4001 33.0059 75.7589 32.6406 75.7589 32.0468C75.828 31.6728 75.9695 31.3163 76.1753 30.9976C76.3811 30.6788 76.6472 30.4042 76.9583 30.1894Z" fill="white"/>
<path d="M76.5643 25.4074L75.6138 26.3818L76.5944 27.3714H76.7302L77.4997 26.5492L78.3068 27.3714H78.4426L79.378 26.3818L78.3973 25.4074H78.2766L77.4997 26.2143L76.6849 25.4074H76.5643Z" fill="white"/>
<path d="M83.6221 28.56C82.5206 28.56 81.3587 30.1893 81.3587 31.7272C81.3332 31.9979 81.3672 32.2709 81.4581 32.5269C81.5491 32.7828 81.6948 33.0154 81.885 33.208C82.0752 33.4007 82.3051 33.5486 82.5584 33.6414C82.8117 33.7341 83.0822 33.7694 83.3505 33.7447C83.8367 33.7596 84.3189 33.6523 84.7538 33.4325L85.1914 32.2906C85.2521 32.5397 85.2825 32.7953 85.2819 33.0519C85.2819 34.7801 83.441 35.9982 80.2271 36.5616V37.0489L83.0789 37.9853C84.7219 36.5315 85.7304 34.4825 85.8855 32.2829C85.8855 30.235 84.8745 28.56 83.6221 28.56ZM83.5014 32.184C82.5206 32.184 81.9472 31.9556 81.9472 31.4226C81.9507 31.0842 82.0824 30.76 82.3153 30.5165C82.5482 30.273 82.8646 30.1287 83.1996 30.1131C83.9541 30.1131 84.7538 30.9506 85.1009 31.9708C84.5829 32.1298 84.0425 32.2018 83.5014 32.184Z" fill="white"/>
<path d="M93.3901 25.529L94.2803 24.6155L93.36 23.7021H93.2393L92.3491 24.6155L93.2694 25.529H93.3901Z" fill="white"/>
<path d="M94.1304 25.4398L93.3458 26.2467L92.5311 25.4398H92.4104L91.46 26.4142L92.4406 27.4038H92.5764L93.3458 26.5817L94.1605 27.4038H94.2963L95.2317 26.4142L94.2511 25.4398H94.1304Z" fill="white"/>
<path d="M95.5273 34.3233C96.4411 34.3223 97.3378 34.0725 98.1226 33.6001C98.395 32.9232 98.5334 32.199 98.53 31.4684V25.6518L99.2845 25.0732V25.0427L98.53 24.1139V22.9719H98.0849C97.1192 23.6266 96.9079 24.388 97.4059 25.195L97.6322 32.4276C97.0534 32.6479 96.4401 32.7614 95.8215 32.7626C94.6597 32.7626 94.2522 32.3058 94.0259 30.9354L93.6487 28.5601H93.2413L93.0451 29.1082C92.6075 30.4025 92.0643 30.7375 91.4457 30.7375C91.1019 30.6906 90.7735 30.5645 90.4857 30.3692C90.1979 30.1738 89.9585 29.9143 89.7859 29.6107H89.3709L88.8428 30.9506C89.816 31.8795 90.2838 32.6256 90.2838 33.2955C90.2838 34.6583 88.707 35.846 85.9004 36.5312V37.0185L88.7372 37.9854C90.0161 36.4131 90.7595 34.467 90.8572 32.4352V32.2678C90.9959 32.2988 91.1376 32.3141 91.2797 32.3134C92.0794 32.3134 92.7132 31.7653 92.9998 30.5471L93.1658 31.5064C93.5581 33.6534 94.0863 34.331 95.5197 34.331L95.5273 34.3233Z" fill="white"/>
<path d="M102.33 32.5951V22.9719H101.855L101.131 24.4489L101.387 34.3233H101.863L102.33 32.5951Z" fill="white"/>
<path d="M103.285 36.5623V37.0496L106.121 37.986C107.764 36.5322 108.773 34.4832 108.928 32.2837C108.928 30.2433 107.917 28.5684 106.665 28.5684C105.563 28.5684 104.401 30.1976 104.401 31.7355C104.377 32.0049 104.412 32.2764 104.503 32.5308C104.594 32.7852 104.739 33.0163 104.928 33.208C105.117 33.3996 105.346 33.5471 105.598 33.6399C105.85 33.7328 106.118 33.7688 106.385 33.7454C106.872 33.7603 107.354 33.6531 107.789 33.4333L108.226 32.2913C108.287 32.5404 108.317 32.7961 108.317 33.0526C108.34 34.7808 106.499 35.999 103.285 36.5623ZM106.544 32.1847C105.563 32.1847 104.99 31.9563 104.99 31.4234C104.993 31.085 105.125 30.7607 105.358 30.5172C105.591 30.2737 105.907 30.1294 106.242 30.1139C106.997 30.1139 107.796 30.9513 108.143 31.9715C107.625 32.1305 107.085 32.2025 106.544 32.1847Z" fill="white"/>
<path d="M4.38457 41.7871L4.86736 41.6425V41.4369H3.56233L3.53215 41.711L2.52887 44.2078L1.31436 41.4369H0.0470446V41.6425L0.537374 41.7871L0.514743 44.9614L0.0244141 45.0984V45.3116H1.51049V45.0984L0.861746 44.8929V41.9698L2.11397 44.7787L2.23467 45.1365H2.46852L2.58167 44.7711L3.77355 41.8937L3.75846 44.969L3.2455 45.0908V45.3116H4.88999V45.0984L4.39966 44.969L4.38457 41.7871Z" fill="white"/>
<path d="M6.17195 42.4648L5.26672 42.6475V42.8835L5.60618 42.9901V44.9692L5.229 45.091V45.3118H6.58684V45.091L6.17195 44.9769V42.4648Z" fill="white"/>
<path d="M6.24671 41.3357C6.24478 41.2334 6.20362 41.1358 6.13189 41.0634C6.06016 40.991 5.96342 40.9495 5.86199 40.9475C5.75983 40.9494 5.66225 40.9907 5.5893 41.0629C5.51635 41.1351 5.47357 41.2327 5.46973 41.3357C5.49314 41.4185 5.54262 41.4912 5.61068 41.543C5.67873 41.5948 5.76166 41.6228 5.8469 41.6228C5.93215 41.6228 6.01508 41.5948 6.08313 41.543C6.15119 41.4912 6.20066 41.4185 6.22408 41.3357H6.24671Z" fill="white"/>
<path d="M9.56753 43.4468C9.56753 42.6856 9.31105 42.4648 8.76037 42.4648C8.57645 42.4845 8.39829 42.5412 8.23636 42.6314C8.07443 42.7216 7.932 42.8435 7.81743 42.9901L7.69674 42.4648L6.94238 42.7541V42.9292L7.31956 43.0205V44.9769L6.96501 45.091V45.3118H8.27004V45.091L7.89287 44.9845V43.188C8.06544 43.0117 8.29648 42.9059 8.54161 42.8911C8.91879 42.8911 9.04703 43.1195 9.06966 43.5229V44.9845L8.74529 45.091V45.3118H10.0126V45.0987L9.63542 44.9845L9.56753 43.4468Z" fill="white"/>
<path d="M11.189 42.4648L10.2838 42.6475V42.8835L10.6233 42.9901V44.9692L10.2461 45.091V45.3118H11.6039V45.091L11.189 44.9769V42.4648Z" fill="white"/>
<path d="M11.2656 41.3364C11.2422 41.2537 11.1927 41.181 11.1246 41.1291C11.0566 41.0773 10.9737 41.0493 10.8884 41.0493C10.8032 41.0493 10.7202 41.0773 10.6522 41.1291C10.5841 41.181 10.5346 41.2537 10.5112 41.3364C10.5346 41.4191 10.5841 41.4919 10.6522 41.5437C10.7202 41.5955 10.8032 41.6235 10.8884 41.6235C10.9737 41.6235 11.0566 41.5955 11.1246 41.5437C11.1927 41.4919 11.2422 41.4191 11.2656 41.3364Z" fill="white"/>
<path d="M13.3079 43.7276L13.0439 43.6058C12.6969 43.4535 12.5913 43.3165 12.5913 43.0958C12.5911 43.0411 12.6022 42.987 12.6237 42.9369C12.6453 42.8868 12.6769 42.8417 12.7166 42.8045C12.7563 42.7673 12.8032 42.7389 12.8543 42.7209C12.9054 42.7029 12.9597 42.6957 13.0137 42.6999C13.1594 42.7009 13.3004 42.7519 13.4135 42.8446L13.6474 43.3622H13.836V42.601C13.6023 42.4808 13.3438 42.4182 13.0816 42.4183C12.9565 42.409 12.8308 42.425 12.712 42.4653C12.5931 42.5056 12.4833 42.5695 12.3892 42.6531C12.2951 42.7368 12.2184 42.8385 12.1637 42.9524C12.1091 43.0664 12.0775 43.1901 12.0708 43.3165C12.0708 43.6895 12.2518 43.9027 12.6667 44.0777L12.9156 44.1919C13.3305 44.3822 13.4588 44.5497 13.4588 44.7705C13.4561 44.8313 13.441 44.8909 13.4144 44.9455C13.3878 45.0001 13.3503 45.0486 13.3043 45.0879C13.2583 45.1273 13.2047 45.1566 13.1469 45.174C13.0891 45.1914 13.0283 45.1965 12.9685 45.1891C12.7967 45.1981 12.6285 45.1378 12.5008 45.0217L12.199 44.367H11.9878L12.0708 45.1968C12.3144 45.3377 12.5896 45.4137 12.8704 45.4175C13.1342 45.4439 13.398 45.367 13.6072 45.2026C13.8164 45.0383 13.955 44.7991 13.9944 44.5345C13.9944 44.2072 13.8209 43.9483 13.3079 43.7276Z" fill="white"/>
<path d="M15.6474 44.9738C15.4287 44.9738 15.2552 44.9738 15.2552 44.4866V42.8728H16.0095V42.5531H15.2552V41.7919H15.044L14.7271 42.515L14.3047 42.6292V42.8804H14.712V44.753C14.712 45.126 14.8403 45.4153 15.3155 45.4153C15.6051 45.4041 15.8853 45.3089 16.1227 45.1413L16.0774 44.9738C15.9342 44.9827 15.7906 44.9827 15.6474 44.9738Z" fill="white"/>
<path d="M18.0228 42.4575C17.804 42.4575 17.6607 42.6021 17.4495 42.8838L17.2383 43.1731L17.1855 42.4651L16.3481 42.7544V42.9447L16.7329 43.0208V44.9695L16.3708 45.0913V45.3121H17.8116V45.0913L17.2986 45V43.4014C17.4111 43.2589 17.5432 43.1332 17.6909 43.0284L18.1661 43.2035C18.2859 43.0923 18.3611 42.9406 18.3774 42.7772C18.3837 42.7303 18.3786 42.6825 18.3624 42.638C18.3462 42.5935 18.3194 42.5538 18.2844 42.5222C18.2494 42.4906 18.2072 42.4682 18.1616 42.4569C18.116 42.4456 18.0683 42.4458 18.0228 42.4575Z" fill="white"/>
<path d="M20.3259 42.7521L20.7182 42.8816L20.0015 44.8379L19.3075 42.8511L19.7224 42.7521V42.5542H18.3872V42.7598L18.6512 42.8587L19.6998 45.5991L19.383 46.3604C19.3609 46.2935 19.3198 46.2348 19.2647 46.1915C19.2097 46.1481 19.1433 46.1221 19.0737 46.1168C19.0314 46.1156 18.9894 46.1234 18.9504 46.1396C18.9113 46.1558 18.876 46.1802 18.8469 46.211C18.8177 46.2419 18.7953 46.2786 18.7811 46.3187C18.7669 46.3589 18.7612 46.4016 18.7644 46.4441C18.7653 46.4937 18.7761 46.5427 18.7961 46.5881C18.816 46.6335 18.8448 46.6744 18.8806 46.7084C18.9164 46.7424 18.9587 46.7689 19.0048 46.7863C19.0509 46.8036 19.0999 46.8115 19.1491 46.8095C19.4659 46.8095 19.6093 46.5735 19.7978 46.0483L21.0501 42.8587L21.3141 42.7521V42.5542H20.3259V42.7521Z" fill="white"/>
<path d="M23.985 42.4558C23.7954 42.4636 23.6092 42.5093 23.4372 42.5902C23.2653 42.6712 23.111 42.7858 22.9832 42.9275C22.8555 43.0691 22.7569 43.2349 22.6932 43.4153C22.6295 43.5957 22.6019 43.787 22.6121 43.9782C22.5992 44.1653 22.6255 44.3529 22.6894 44.529C22.7534 44.7051 22.8534 44.8655 22.983 44.9999C23.1126 45.1342 23.2688 45.2395 23.4415 45.3087C23.6142 45.378 23.7994 45.4097 23.985 45.4017C24.1749 45.3949 24.3616 45.3499 24.5341 45.2693C24.7065 45.1887 24.8612 45.074 24.9891 44.9322C25.1171 44.7904 25.2156 44.6241 25.2789 44.4433C25.3422 44.2625 25.3691 44.0707 25.3579 43.8793C25.3759 43.6911 25.353 43.5012 25.2909 43.3229C25.2288 43.1445 25.129 42.982 24.9983 42.8465C24.8677 42.711 24.7093 42.6059 24.5343 42.5384C24.3593 42.4709 24.1719 42.4427 23.985 42.4558ZM24.068 45.1277C23.4947 45.1277 23.2382 44.4578 23.2156 43.8107C23.1929 43.1637 23.4645 42.7374 23.9096 42.7298C24.3546 42.7222 24.7394 43.2018 24.7469 44.0315C24.7695 44.6481 24.5055 45.1201 24.068 45.1277Z" fill="white"/>
<path d="M27.3883 40.9475C27.025 40.9914 26.6918 41.1732 26.4565 41.456C26.2211 41.7387 26.1012 42.1012 26.121 42.47L25.7212 42.5918V42.843H26.121V44.9668L25.7665 45.081V45.3017H27.2148V45.081L26.6943 44.9668V42.8582H27.4487V42.5537H26.6943V42.097C26.6943 41.4499 26.9583 41.2292 27.2752 41.2292C27.3639 41.2315 27.4512 41.2523 27.5316 41.2901L27.675 41.8001C27.7248 41.8094 27.776 41.8094 27.8258 41.8001C27.8693 41.8035 27.913 41.7974 27.9539 41.7822C27.9948 41.7669 28.0319 41.7429 28.0627 41.7118C28.0936 41.6807 28.1174 41.6432 28.1325 41.602C28.1476 41.5607 28.1536 41.5166 28.1502 41.4728C28.1502 41.2292 27.8636 40.9475 27.3883 40.9475Z" fill="white"/>
<path d="M30.104 41.7871L30.5943 41.6425V41.4369H28.98V41.6425L29.4703 41.7871V44.969L28.98 45.0908V45.3116H30.6018V45.0984L30.104 44.969V41.7871Z" fill="white"/>
<path d="M33.6569 43.4468C33.6569 42.6856 33.4004 42.4648 32.8497 42.4648C32.6658 42.4845 32.4876 42.5412 32.3257 42.6314C32.1638 42.7216 32.0214 42.8435 31.9068 42.9901L31.7861 42.4648L31.0317 42.7541V42.9292L31.4089 43.0205V44.9769L31.0544 45.091V45.3118H32.3519V45.091L31.9822 44.9845V43.188C32.1535 43.0098 32.3853 42.9038 32.631 42.8911C33.0081 42.8911 33.1364 43.1195 33.159 43.5229V44.9845L32.8346 45.091V45.3118H34.102V45.0987L33.7248 44.9845L33.6569 43.4468Z" fill="white"/>
<path d="M36.8876 40.9554L35.7787 41.1077V41.3132L36.3218 41.4198V42.554C36.1643 42.5122 36.0019 42.4917 35.839 42.4931C35.6396 42.499 35.4432 42.5447 35.2614 42.6277C35.0796 42.7107 34.9159 42.8292 34.7798 42.9765C34.6437 43.1237 34.5379 43.2968 34.4685 43.4856C34.3991 43.6744 34.3675 43.8752 34.3756 44.0764C34.3578 44.2424 34.3744 44.4102 34.4243 44.5693C34.4743 44.7285 34.5565 44.8753 34.6658 45.0006C34.775 45.1259 34.909 45.2269 35.059 45.2971C35.209 45.3674 35.3719 45.4053 35.5373 45.4086C35.6983 45.4025 35.8561 45.362 36.0005 45.2899C36.1448 45.2177 36.2723 45.1155 36.3746 44.9899L36.5255 45.3934L37.3402 45.2716V45.066L36.8876 44.9518V40.9554ZM36.3218 44.8377C36.1879 44.9279 36.0303 44.9756 35.8692 44.9747C35.1828 44.9747 34.9414 44.3733 34.9414 43.7719C34.9414 43.1706 35.2884 42.7443 35.6957 42.7443C35.8209 42.7515 35.9423 42.7901 36.049 42.8565C36.1557 42.923 36.2443 43.0152 36.3067 43.1249L36.3218 44.8377Z" fill="white"/>
<path d="M40.2587 42.4929L39.2328 42.5995V42.8203L39.6854 42.9192V44.7309C39.5299 44.8797 39.3261 44.9662 39.1121 44.9745C38.7274 44.9745 38.5388 44.7614 38.5312 44.297V42.4853L37.5581 42.5538V42.7822L37.9655 42.8888V44.3579C37.9655 45.0278 38.2597 45.378 38.7198 45.378C38.9048 45.3709 39.0861 45.3237 39.2514 45.2397C39.4167 45.1556 39.5621 45.0366 39.6778 44.8908L39.8664 45.3628L40.7415 45.2638V45.0506L40.2889 44.9441L40.2587 42.4929Z" fill="white"/>
<path d="M42.3723 43.7282L42.1083 43.6064C41.7613 43.4541 41.6481 43.3171 41.6481 43.0964C41.649 43.0414 41.661 42.9871 41.6834 42.937C41.7058 42.8868 41.7382 42.8418 41.7784 42.8048C41.8187 42.7677 41.8661 42.7393 41.9176 42.7214C41.9691 42.7035 42.0238 42.6964 42.0781 42.7005C42.2218 42.7001 42.3609 42.7514 42.4704 42.8452L42.7118 43.3628H42.8928V42.6016C42.6595 42.4806 42.4008 42.4179 42.1385 42.4189C42.0124 42.4085 41.8855 42.4237 41.7653 42.4634C41.6451 42.5032 41.534 42.5667 41.4384 42.6504C41.3429 42.734 41.2648 42.8361 41.2089 42.9506C41.1529 43.0651 41.1202 43.1897 41.1125 43.3171C41.1125 43.6901 41.3011 43.9033 41.7085 44.0783L41.965 44.1925C42.3723 44.3828 42.5006 44.5503 42.5006 44.7711C42.4989 44.8315 42.4848 44.891 42.459 44.9456C42.4332 45.0002 42.3964 45.0488 42.351 45.0882C42.3055 45.1276 42.2524 45.157 42.195 45.1745C42.1376 45.192 42.0773 45.1972 42.0178 45.1897C41.8441 45.1967 41.6742 45.1368 41.5425 45.0223L41.2483 44.3676H41.0371L41.1352 45.2126C41.3788 45.3535 41.654 45.4295 41.9348 45.4333C42.1974 45.4577 42.4593 45.3798 42.6668 45.2156C42.8744 45.0515 43.0119 44.8134 43.0512 44.5503C43.0512 44.2078 42.8853 43.9489 42.3723 43.7282Z" fill="white"/>
<path d="M44.7051 44.9738C44.4863 44.9738 44.3128 44.9738 44.3128 44.4866V42.8728H45.0671V42.5531H44.3128V41.7919H44.1016L43.7772 42.515L43.3623 42.6292V42.8804H43.7621V44.753C43.7621 45.126 43.8904 45.4153 44.3656 45.4153C44.6551 45.4041 44.9354 45.3089 45.1727 45.1413L45.135 44.9738C44.9918 44.9822 44.8483 44.9822 44.7051 44.9738Z" fill="white"/>
<path d="M47.0804 42.4556C46.8692 42.4556 46.7259 42.6003 46.5147 42.8819L46.2959 43.1712L46.2431 42.4632L45.4058 42.7525V42.9428L45.7829 43.0189V44.9677L45.4284 45.0895V45.3102H46.8692V45.0895L46.3562 44.9981V43.3995C46.4663 43.2574 46.5959 43.1319 46.741 43.0265L47.2238 43.2016C47.3408 43.0893 47.4132 42.9377 47.4274 42.7753C47.4334 42.7292 47.4283 42.6823 47.4124 42.6386C47.3966 42.5948 47.3705 42.5556 47.3365 42.5243C47.3024 42.4929 47.2614 42.4703 47.2168 42.4583C47.1722 42.4464 47.1254 42.4454 47.0804 42.4556Z" fill="white"/>
<path d="M49.3796 42.7521L49.7719 42.8816L49.0401 44.8379L48.3537 42.8511L48.7686 42.7521V42.5542H47.4409V42.7598L47.7049 42.8587L48.7535 45.5991L48.4367 46.3604C48.4155 46.293 48.3746 46.2337 48.3194 46.1902C48.2642 46.1467 48.1973 46.1211 48.1274 46.1168C48.0851 46.1156 48.0431 46.1234 48.0041 46.1396C47.965 46.1558 47.9298 46.1802 47.9006 46.211C47.8714 46.2419 47.849 46.2786 47.8348 46.3187C47.8206 46.3589 47.8149 46.4016 47.8181 46.4441C47.8191 46.4937 47.8298 46.5427 47.8498 46.5881C47.8697 46.6335 47.8985 46.6744 47.9343 46.7084C47.9702 46.7424 48.0124 46.7689 48.0585 46.7863C48.1046 46.8036 48.1536 46.8115 48.2028 46.8095C48.5196 46.8095 48.663 46.5735 48.8591 46.0483L50.1189 42.8435L50.3829 42.7369V42.5542H49.3796V42.7521Z" fill="white"/>
<path d="M53.847 44.8757V43.3152C53.847 42.7214 53.5981 42.4322 52.9795 42.4322C52.361 42.4322 51.8254 42.8661 51.8254 43.1553C51.8254 43.3152 51.931 43.4141 52.1196 43.4141C52.2048 43.4244 52.2909 43.4244 52.3761 43.4141V42.828C52.4789 42.766 52.5958 42.7319 52.7155 42.729C53.0399 42.729 53.236 42.9498 53.2511 43.4141V43.6958L52.6476 43.8556C52.0592 44.0079 51.7198 44.221 51.7198 44.693C51.7187 44.7866 51.7364 44.8794 51.7719 44.9658C51.8073 45.0523 51.8598 45.1306 51.926 45.196C51.9923 45.2615 52.071 45.3127 52.1574 45.3466C52.2439 45.3805 52.3362 45.3964 52.4289 45.3933C52.806 45.3933 52.9569 45.2106 53.2511 44.9138C53.2511 45.1726 53.3869 45.3857 53.6962 45.3857C53.8998 45.3661 54.0987 45.312 54.2846 45.2259V45.0508H54.013C53.8848 45.0508 53.847 45.0051 53.847 44.8757ZM53.2737 44.693C53.222 44.7737 53.1518 44.8407 53.0691 44.8883C52.9865 44.936 52.8936 44.963 52.7985 44.967C52.7386 44.9725 52.6783 44.965 52.6216 44.9451C52.5648 44.9251 52.5129 44.8932 52.4694 44.8514C52.4258 44.8096 52.3916 44.7589 52.369 44.7027C52.3464 44.6465 52.336 44.5861 52.3383 44.5255C52.3383 44.2895 52.4968 44.1754 52.7834 44.0764L53.2737 43.9089V44.693Z" fill="white"/>
<path d="M57.2736 43.4468C57.2736 42.6856 57.0171 42.4648 56.4664 42.4648C56.2825 42.4845 56.1043 42.5412 55.9424 42.6314C55.7805 42.7216 55.638 42.8435 55.5235 42.9901L55.4028 42.4648L54.6484 42.7541V42.9292L55.0332 43.0205V44.9769L54.6711 45.091V45.3118H55.9082V45.091L55.531 44.9845V43.188C55.7036 43.0117 55.9346 42.9059 56.1798 42.8911C56.5569 42.8911 56.6927 43.1195 56.7078 43.5229V44.9845L56.3835 45.091V45.3118H57.6508V45.0987L57.2736 44.9845V43.4468Z" fill="white"/>
<path d="M60.5038 40.9554L59.4024 41.1077V41.3132L59.938 41.4198V42.554C59.7805 42.5122 59.6181 42.4917 59.4553 42.4931C59.2558 42.499 59.0594 42.5447 58.8776 42.6277C58.6958 42.7107 58.5321 42.8292 58.396 42.9765C58.2599 43.1237 58.1541 43.2968 58.0847 43.4856C58.0153 43.6744 57.9837 43.8752 57.9918 44.0764C57.974 44.2424 57.9906 44.4102 58.0405 44.5693C58.0905 44.7285 58.1727 44.8753 58.282 45.0006C58.3912 45.1259 58.5252 45.2269 58.6752 45.2971C58.8253 45.3674 58.9881 45.4053 59.1535 45.4086C59.3146 45.403 59.4726 45.3627 59.617 45.2905C59.7614 45.2183 59.8889 45.1158 59.9908 44.9899L60.1417 45.3934L60.9564 45.2716V45.066L60.5038 44.9518V40.9554ZM59.938 44.8377C59.8041 44.9279 59.6465 44.9756 59.4854 44.9747C58.799 44.9747 58.5651 44.3733 58.5651 43.7719C58.5651 43.1706 58.9121 42.7443 59.3195 42.7443C59.4446 42.7515 59.5661 42.7901 59.6727 42.8565C59.7794 42.923 59.868 43.0152 59.9305 43.1249L59.938 44.8377Z" fill="white"/>
<path d="M66.8321 41.7871L67.3224 41.6425V41.4369H66.0174L65.9872 41.711L64.9764 44.2078L63.7619 41.4369H62.4946V41.6425L62.9849 41.7871L62.9698 44.9614L62.4795 45.0984V45.3116H63.958V45.0984L63.3093 44.8929L63.3168 41.9698L64.5615 44.7787L64.6897 45.1365H64.9161L65.0367 44.7711L66.2286 41.8937L66.206 44.969L65.7006 45.0908V45.3116H67.3375V45.0984L66.8547 44.969L66.8321 41.7871Z" fill="white"/>
<path d="M67.9043 41.3357C67.9043 41.4387 67.9448 41.5374 68.017 41.6103C68.0891 41.6831 68.187 41.724 68.289 41.724C68.3918 41.724 68.4904 41.6833 68.5638 41.6107C68.6371 41.5381 68.6793 41.4394 68.6813 41.3357C68.6774 41.2327 68.6347 41.1351 68.5617 41.0629C68.4888 40.9907 68.3912 40.9494 68.289 40.9475C68.1876 40.9495 68.0908 40.991 68.0191 41.0634C67.9474 41.1358 67.9062 41.2334 67.9043 41.3357Z" fill="white"/>
<path d="M68.6192 42.4648L67.7215 42.6475V42.8835L68.061 42.9901V44.9692L67.6763 45.091V45.3118H69.0417V45.091L68.6192 44.9769V42.4648Z" fill="white"/>
<path d="M72.0161 43.4468C72.0161 42.6856 71.7596 42.4648 71.2089 42.4648C71.025 42.4845 70.8468 42.5412 70.6849 42.6314C70.523 42.7216 70.3806 42.8435 70.266 42.9901L70.1679 42.4648L69.4136 42.7541V42.9292L69.7983 43.0205V44.9769L69.4362 45.091V45.3118H70.7412V45.091L70.3641 44.9845V43.188C70.5366 43.0117 70.7677 42.9059 71.0128 42.8911C71.39 42.8911 71.5258 43.1195 71.5408 43.5229V44.9845L71.2165 45.091V45.3118H72.431V45.0987L72.0538 44.9845L72.0161 43.4468Z" fill="white"/>
<path d="M74.2709 44.9236C73.6825 44.9236 73.2676 44.4897 73.2676 43.7437H75.1761C75.1761 42.9444 74.7989 42.4648 74.12 42.4648C73.9257 42.4713 73.7347 42.5177 73.5586 42.6011C73.3826 42.6844 73.2253 42.8031 73.0961 42.9498C72.967 43.0965 72.8688 43.2682 72.8075 43.4544C72.7462 43.6406 72.7231 43.8374 72.7395 44.0329C72.7162 44.3386 72.8025 44.6426 72.9826 44.8894C73.1627 45.1363 73.4247 45.3096 73.7209 45.3779C74.0171 45.4462 74.3277 45.4048 74.5962 45.2613C74.8647 45.1178 75.0731 44.8818 75.1836 44.5962L75.0705 44.5125C74.9726 44.6331 74.851 44.7319 74.7134 44.8027C74.5758 44.8734 74.4251 44.9146 74.2709 44.9236ZM73.9918 42.7465C74.3614 42.7465 74.5273 43.0966 74.5349 43.5077H73.2902C73.2897 43.3147 73.3619 43.1287 73.4922 42.9874C73.6224 42.8461 73.801 42.76 73.9918 42.7465Z" fill="white"/>
<path d="M77.3365 42.4556C77.1177 42.4556 76.9744 42.6003 76.7707 42.8819L76.552 43.1712L76.4916 42.4632L75.6543 42.7525V42.9428L76.039 43.0189V44.9677L75.6845 45.0895V45.3102H77.1253V45.0895L76.6048 44.9981V43.3995C76.7191 43.2587 76.8509 43.1333 76.997 43.0265L77.4723 43.2016C77.5945 43.0923 77.6702 42.9396 77.6835 42.7753C77.6895 42.7292 77.6843 42.6823 77.6685 42.6386C77.6527 42.5948 77.6266 42.5556 77.5926 42.5243C77.5585 42.4929 77.5174 42.4703 77.4729 42.4583C77.4283 42.4464 77.3815 42.4454 77.3365 42.4556Z" fill="white"/>
<path d="M79.9764 44.8757V43.3152C79.9764 42.7214 79.7275 42.4322 79.1089 42.4322C78.4904 42.4322 77.9548 42.8661 77.9548 43.1553C77.9548 43.3152 78.0604 43.4141 78.249 43.4141C78.3342 43.4232 78.4202 43.4232 78.5055 43.4141V42.828C78.6083 42.766 78.7252 42.7319 78.8449 42.729C79.1617 42.729 79.3654 42.9498 79.3805 43.4141V43.6958L78.777 43.8556C78.1886 44.0079 77.8492 44.221 77.8492 44.693C77.8481 44.7866 77.8658 44.8794 77.9013 44.9658C77.9367 45.0523 77.9892 45.1306 78.0554 45.196C78.1217 45.2615 78.2004 45.3127 78.2868 45.3466C78.3733 45.3805 78.4656 45.3964 78.5583 45.3933C78.9354 45.3933 79.0863 45.2106 79.3805 44.9138C79.3805 45.1726 79.5163 45.3857 79.8256 45.3857C80.0292 45.3661 80.2281 45.312 80.414 45.2259V45.0508H80.1424C80.0217 45.0508 79.9764 45.0051 79.9764 44.8757ZM79.4031 44.693C79.3514 44.7737 79.2812 44.8407 79.1985 44.8883C79.1158 44.936 79.023 44.963 78.9279 44.967C78.868 44.9725 78.8077 44.965 78.751 44.9451C78.6942 44.9251 78.6423 44.8932 78.5988 44.8514C78.5552 44.8096 78.521 44.7589 78.4984 44.7027C78.4758 44.6465 78.4653 44.5861 78.4677 44.5255C78.4677 44.2895 78.6261 44.1754 78.9128 44.0764L79.4031 43.9089V44.693Z" fill="white"/>
<path d="M81.6509 40.9554L80.708 41.1533V41.3589L81.0852 41.4654V44.9747L80.7156 45.0889V45.3096H82.0432V45.0889L81.6509 44.9823V40.9554Z" fill="white"/>
<path d="M85.7787 43.393C86.0103 43.3459 86.2199 43.2224 86.3742 43.0418C86.5286 42.8612 86.619 42.6339 86.6311 42.3957C86.6311 41.7792 86.0653 41.4062 84.979 41.4214H83.5835V41.6269L84.0738 41.7715V44.9535L83.5835 45.0753V45.296H85.1827V45.0829L84.7075 44.9535V43.5833H85.1752L85.4166 43.9639L86.3746 45.3341H87.3704V45.1209L86.8725 44.9991L85.7787 43.393ZM85.1526 43.3321H84.7075V41.6421C85.5146 41.6421 85.9673 41.9618 85.9673 42.5175C85.9542 42.7291 85.8636 42.9283 85.7129 43.076C85.5623 43.2238 85.3625 43.3097 85.1526 43.3168V43.3321Z" fill="white"/>
<path d="M88.9409 44.9236C88.3525 44.9236 87.9376 44.4897 87.9376 43.7437H89.8461C89.8461 42.9444 89.4689 42.4648 88.79 42.4648C88.5953 42.4714 88.4041 42.5177 88.2277 42.601C88.0513 42.6843 87.8934 42.8028 87.7637 42.9494C87.634 43.0959 87.535 43.2675 87.4729 43.4538C87.4107 43.64 87.3866 43.837 87.402 44.0329C87.3847 44.3366 87.4747 44.6367 87.6559 44.8798C87.8371 45.1229 88.0978 45.2934 88.3917 45.3609C88.6856 45.4284 88.9938 45.3887 89.2614 45.2487C89.5291 45.1087 89.7389 44.8775 89.8536 44.5962L89.7405 44.5125C89.6426 44.6331 89.521 44.7319 89.3834 44.8027C89.2458 44.8734 89.0951 44.9146 88.9409 44.9236ZM88.6617 42.7465C89.0314 42.7465 89.1973 43.0966 89.2049 43.5077H87.9602C87.9597 43.3147 88.0319 43.1287 88.1622 42.9874C88.2924 42.8461 88.471 42.76 88.6617 42.7465Z" fill="white"/>
<path d="M91.6775 43.7257L91.4135 43.6039C91.0665 43.4517 90.9609 43.3146 90.9609 43.0939C90.9607 43.0392 90.9717 42.9851 90.9933 42.935C91.0149 42.8849 91.0465 42.8398 91.0862 42.8026C91.1259 42.7655 91.1728 42.737 91.2239 42.719C91.275 42.701 91.3293 42.6938 91.3833 42.698C91.529 42.699 91.67 42.75 91.7831 42.8427L92.0169 43.3603H92.2055V42.5991C91.9719 42.4789 91.7134 42.4163 91.4512 42.4164C91.2056 42.3928 90.9607 42.4673 90.7689 42.6238C90.5771 42.7804 90.4538 43.0065 90.4253 43.2537C90.4253 43.6267 90.6063 43.8399 91.0212 44.015L91.2701 44.1291C91.685 44.3194 91.8133 44.4869 91.8133 44.7077C91.8106 44.7685 91.7955 44.8281 91.7689 44.8827C91.7423 44.9373 91.7048 44.9858 91.6588 45.0252C91.6127 45.0645 91.5591 45.0938 91.5013 45.1112C91.4436 45.1286 91.3828 45.1338 91.3229 45.1263C91.1512 45.1353 90.983 45.075 90.8552 44.9589L90.5535 44.3042H90.3423L90.4404 45.1492C90.684 45.2902 90.9592 45.3661 91.24 45.3699C91.5029 45.3962 91.7658 45.319 91.9738 45.1545C92.1818 44.99 92.3188 44.7509 92.3564 44.4869C92.3564 44.2053 92.1905 43.9465 91.6775 43.7257Z" fill="white"/>
<path d="M94.2067 42.4558C94.0171 42.4636 93.8309 42.5093 93.6589 42.5902C93.487 42.6712 93.3326 42.7858 93.2049 42.9275C93.0772 43.0691 92.9786 43.2349 92.9149 43.4153C92.8512 43.5957 92.8236 43.787 92.8338 43.9782C92.8208 44.1653 92.8472 44.3529 92.9111 44.529C92.975 44.7051 93.0751 44.8655 93.2047 44.9999C93.3343 45.1342 93.4905 45.2395 93.6632 45.3087C93.8358 45.378 94.021 45.4097 94.2067 45.4017C94.3966 45.3949 94.5833 45.3499 94.7557 45.2693C94.9282 45.1887 95.0829 45.074 95.2108 44.9322C95.3387 44.7904 95.4372 44.6241 95.5006 44.4433C95.5639 44.2625 95.5908 44.0707 95.5796 43.8793C95.5976 43.6911 95.5747 43.5012 95.5126 43.3229C95.4505 43.1445 95.3507 42.982 95.22 42.8465C95.0894 42.711 94.931 42.6059 94.756 42.5384C94.581 42.4709 94.3936 42.4427 94.2067 42.4558ZM94.2897 45.1277C93.7163 45.1277 93.4523 44.4578 93.4372 43.8107C93.4221 43.1637 93.6862 42.7374 94.1312 42.7298C94.5763 42.7222 94.9535 43.2018 94.9686 44.0315C94.9837 44.6481 94.7196 45.1201 94.3123 45.1277H94.2897Z" fill="white"/>
<path d="M98.5511 42.4929L97.5176 42.5995V42.8203L97.9778 42.9192V44.7309C97.8212 44.8779 97.6181 44.9642 97.4045 44.9745C97.0197 44.9745 96.8311 44.7614 96.8236 44.297V42.4853L95.8203 42.5538V42.7822L96.2201 42.8888V44.3579C96.2201 45.0278 96.5219 45.378 97.0122 45.378C97.1972 45.3709 97.3785 45.3237 97.5438 45.2397C97.7091 45.1556 97.8545 45.0366 97.9702 44.8908L98.1513 45.3628L98.9735 45.2333V45.0202L98.5209 44.9136L98.5511 42.4929Z" fill="white"/>
<path d="M100.921 42.4556C100.71 42.4556 100.567 42.6003 100.355 42.8819L100.137 43.1712L100.084 42.4632L99.2466 42.7525V42.9428L99.6313 43.0189V44.9677L99.2692 45.0895V45.3102H100.71V45.0895L100.197 44.9981V43.3995C100.307 43.2574 100.437 43.1319 100.582 43.0265L101.065 43.2016C101.182 43.0893 101.254 42.9377 101.268 42.7753C101.274 42.7292 101.269 42.6823 101.253 42.6386C101.237 42.5948 101.211 42.5556 101.177 42.5243C101.143 42.4929 101.102 42.4703 101.058 42.4583C101.013 42.4464 100.966 42.4454 100.921 42.4556Z" fill="white"/>
<path d="M102.98 44.9454C102.838 44.935 102.699 44.8959 102.573 44.8305C102.446 44.7651 102.333 44.6747 102.242 44.5647C102.151 44.4547 102.082 44.3272 102.04 44.19C101.998 44.0527 101.984 43.9084 101.999 43.7655C101.999 43.1946 102.323 42.7303 102.791 42.7303C102.906 42.7204 103.022 42.7529 103.115 42.8216L103.198 43.3925C103.271 43.3971 103.344 43.3971 103.417 43.3925C103.461 43.3937 103.505 43.3855 103.546 43.3685C103.587 43.3515 103.624 43.3261 103.654 43.2938C103.685 43.2615 103.709 43.2232 103.724 43.1812C103.739 43.1392 103.745 43.0945 103.741 43.05C103.741 42.7227 103.387 42.4486 102.889 42.4486C102.691 42.4545 102.496 42.4998 102.315 42.5818C102.134 42.6638 101.971 42.781 101.835 42.9266C101.699 43.0723 101.593 43.2435 101.523 43.4305C101.453 43.6176 101.42 43.8168 101.426 44.0167C101.41 44.1917 101.43 44.368 101.486 44.5343C101.542 44.7007 101.632 44.8534 101.75 44.9825C101.868 45.1116 102.012 45.2143 102.171 45.284C102.331 45.3537 102.504 45.3887 102.678 45.3869C102.908 45.3844 103.132 45.3157 103.324 45.1889C103.517 45.0622 103.669 44.8826 103.764 44.6714L103.643 44.58C103.564 44.6846 103.464 44.7711 103.35 44.8341C103.236 44.897 103.109 44.935 102.98 44.9454Z" fill="white"/>
<path d="M105.668 44.9236C105.072 44.9236 104.664 44.4897 104.664 43.7437H106.565C106.565 42.9444 106.188 42.4648 105.517 42.4648C105.321 42.4704 105.129 42.516 104.952 42.5988C104.775 42.6817 104.616 42.8 104.486 42.9467C104.355 43.0934 104.255 43.2653 104.193 43.452C104.13 43.6388 104.106 43.8364 104.121 44.0329C104.111 44.2092 104.136 44.3857 104.196 44.5516C104.256 44.7175 104.349 44.8693 104.469 44.9976C104.589 45.126 104.734 45.2281 104.895 45.2979C105.055 45.3676 105.229 45.4034 105.404 45.4031C105.655 45.3956 105.898 45.3155 106.105 45.1725C106.313 45.0295 106.475 44.8295 106.573 44.5962L106.452 44.5125C106.357 44.6323 106.238 44.7308 106.103 44.8016C105.968 44.8724 105.82 44.9139 105.668 44.9236ZM105.381 42.7465C105.758 42.7465 105.924 43.0966 105.932 43.5077H104.687C104.686 43.3159 104.757 43.131 104.886 42.9899C105.015 42.8487 105.192 42.7618 105.381 42.7465Z" fill="white"/>
<path d="M108.404 43.7288L108.14 43.607C107.793 43.4548 107.688 43.3178 107.688 43.097C107.687 43.0424 107.699 42.9883 107.72 42.9382C107.742 42.888 107.773 42.843 107.813 42.8058C107.853 42.7686 107.9 42.7401 107.951 42.7221C108.002 42.7041 108.056 42.697 108.11 42.7012C108.254 42.7007 108.393 42.752 108.502 42.8458L108.744 43.3634H108.925V42.6022C108.692 42.4809 108.433 42.4182 108.17 42.4195C108.044 42.4081 107.916 42.4224 107.795 42.4617C107.674 42.501 107.562 42.5644 107.465 42.6481C107.369 42.7319 107.29 42.8343 107.234 42.9493C107.178 43.0644 107.145 43.1896 107.137 43.3178C107.137 43.6908 107.326 43.9039 107.733 44.079L107.989 44.1932C108.397 44.3835 108.525 44.551 108.525 44.7717C108.523 44.8322 108.509 44.8916 108.483 44.9462C108.458 45.0009 108.421 45.0494 108.375 45.0889C108.33 45.1283 108.277 45.1577 108.219 45.1752C108.162 45.1927 108.102 45.1978 108.042 45.1904C107.868 45.1973 107.699 45.1374 107.567 45.0229L107.273 44.3683H107.062L107.16 45.2132C107.403 45.3542 107.678 45.4302 107.959 45.434C108.222 45.4583 108.484 45.3804 108.691 45.2163C108.899 45.0521 109.036 44.8141 109.076 44.551C109.083 44.2084 108.917 43.9496 108.404 43.7288Z" fill="white"/>
<path d="M123.972 16.2745C123.977 16.2869 123.977 16.3006 123.972 16.313C123.972 16.313 123.972 16.2976 123.972 16.2745Z" fill="#404040"/>
<path d="M158.088 49.6886C158.254 49.6429 158.435 49.582 158.608 49.5211L158.088 49.6886Z" fill="#9E9B9C"/>
<path d="M174.376 27.3734C174.142 30.8528 172.701 37.1874 170.815 40.1948C169.201 42.753 163.844 47.4278 159.317 49.2627H159.271H159.234H159.188C156.932 50.1687 154.179 48.8744 152.594 47.8846H152.534C152.255 47.7171 152.013 47.5572 151.817 47.4202C151.485 47.1917 151.296 47.0471 151.296 47.0471C150.859 46.7197 150.429 46.3847 150.014 46.0269L149.682 45.7375C149.546 45.6309 149.41 45.5091 149.282 45.3949L148.693 44.8544L148.105 44.2986L147.479 43.6971L146.573 42.791C153.364 41.3064 164.017 37.0656 169.963 32.7258C172.445 30.9213 174.112 29.1017 174.346 27.4647C174.369 27.4266 174.369 27.3962 174.376 27.3734Z" fill="url(#paint0_linear_70_23565)"/>
<path d="M159.139 49.339C159.011 49.3847 158.845 49.4532 158.634 49.5217L158.113 49.6892C157.979 49.7353 157.843 49.7734 157.706 49.8034L157.517 49.8491L157.321 49.8948H157.094C156.998 49.9174 156.899 49.9327 156.8 49.9405C153.345 50.3211 143.665 48.8593 137.674 46.0651L137.417 45.9433L137.153 45.8139C135.559 45.0087 134.137 43.8965 132.966 42.5401C128.831 37.3476 123.829 24.7852 123.912 17.5828C124.003 16.3978 124.373 15.2518 124.991 14.2404L125.067 14.1262C125.112 14.0424 125.165 13.9663 125.217 13.8826C126.351 12.1875 127.814 10.7422 129.518 9.63419C131.457 19.3187 137.817 33.7768 146.584 42.7685C146.886 43.073 147.188 43.3776 147.497 43.6745C147.807 43.9714 148.297 44.4358 148.705 44.8318L149.293 45.3723C149.429 45.4865 149.557 45.6083 149.693 45.7149L150.025 46.0042C150.447 46.3621 150.877 46.6971 151.307 47.0245C151.307 47.0245 151.496 47.1691 151.828 47.3975C152.024 47.5346 152.266 47.6945 152.583 47.862C152.6 47.8654 152.618 47.8654 152.635 47.862C154.182 48.8746 156.936 50.1689 159.139 49.339Z" fill="url(#paint1_linear_70_23565)"/>
<path d="M123.959 16.3477C123.913 16.736 123.898 17.109 123.883 17.383C123.89 17.0937 123.913 16.736 123.959 16.3477Z" fill="url(#paint2_linear_70_23565)"/>
<path d="M174.355 27.3658V27.3277V27.4648C174.121 29.1017 172.454 30.9213 169.971 32.7257C165.971 31.2392 162.198 29.1886 158.767 26.6349C149.449 19.836 143.466 8.53741 135.635 7.95877C133.46 7.84633 131.308 8.44732 129.501 9.67183C127.796 10.7777 126.332 12.2234 125.2 13.9202C125.147 14.004 125.095 14.0801 125.049 14.1638L124.974 14.2704C124.355 15.2844 123.985 16.433 123.895 17.6204C123.895 17.6204 123.895 17.5671 123.895 17.5367C123.895 17.5062 123.895 17.4529 123.895 17.4072C123.895 17.1179 123.895 16.7601 123.97 16.3718C123.975 16.3595 123.975 16.346 123.97 16.3337C123.97 16.288 123.97 16.2347 123.97 16.1891C125.08 8.57547 132.979 -0.172525 139.385 0.00258696C147.148 0.215767 153.788 9.55001 159.816 15.1688C164.984 19.9806 169.157 22.021 171.782 23.7417C173.48 24.8381 174.423 25.8202 174.325 27.3962L174.355 27.3658Z" fill="url(#paint3_linear_70_23565)"/>
<path d="M273.843 28.3887V28.4426C273.843 32.0496 271.203 34.6979 266.922 34.6979C263.458 34.6979 261.071 33.3318 259.424 31.3905L262.334 28.6283C263.651 30.1023 265.028 30.9232 266.976 30.9232C268.569 30.9232 269.694 30.0244 269.694 28.5984V28.5444C269.694 26.9866 268.293 26.1118 265.93 26.1118H264.174L263.513 23.4335L269.682 17.2681L267.21 18.8499H260.548V15.2429H273.542V18.4125L268.678 23.0321C271.287 23.4695 273.843 24.8356 273.843 28.3887ZM261.787 6.50099C261.787 4.76939 263.038 3.37333 264.787 3.37333H266.759L266.242 3.63097V8.36441C266.242 8.69395 266.266 8.98755 266.321 9.25118C266.351 9.40097 266.399 9.53878 266.453 9.6706H264.805C263.056 9.6706 261.787 8.25656 261.787 6.52496V6.50099ZM264.787 10.4675H266.537V9.83837C266.555 9.86833 266.573 9.89828 266.591 9.92824C266.717 10.114 266.886 10.2578 267.09 10.3537C267.295 10.4495 267.553 10.5034 267.854 10.5034H283.229V2.58242H282.387V9.65862H281.509H267.89C267.728 9.65862 267.595 9.63465 267.493 9.59271C267.391 9.54478 267.313 9.47287 267.253 9.37102C267.192 9.26916 267.15 9.13734 267.126 8.96957C267.102 8.8078 267.09 8.60408 267.09 8.36441V2.58242H264.811C262.478 2.58242 260.891 4.42187 260.891 6.52496V6.54893C260.891 8.64602 262.454 10.4675 264.787 10.4675ZM289.446 1.74358H287.6V1.06053C287.6 0.695037 287.684 0.419419 287.859 0.251651C288.027 0.0838838 288.279 0 288.604 0H289.199V0.587186H288.622C288.49 0.587186 288.4 0.611153 288.364 0.659087C288.322 0.713012 288.297 0.796896 288.297 0.904746V1.09648H289.458V1.74358H289.446ZM291.58 10.5813C291.358 10.5813 291.13 10.5514 290.895 10.4855L291.117 9.67659C291.214 9.70655 291.292 9.72453 291.352 9.73052C291.406 9.73651 291.472 9.7425 291.55 9.7425C291.713 9.7425 291.845 9.71853 291.947 9.67659C292.049 9.62866 292.128 9.55676 292.188 9.4549C292.248 9.35304 292.29 9.22122 292.314 9.05346C292.338 8.89168 292.35 8.68796 292.35 8.44829V2.57643H293.192V8.44829C293.192 8.77784 293.168 9.07143 293.114 9.33506C293.06 9.5987 292.969 9.82039 292.843 10.0061C292.717 10.1919 292.549 10.3297 292.344 10.4315C292.14 10.5334 291.881 10.5813 291.58 10.5813ZM267.084 1.74358H266.242V0.904746H267.084V1.74358ZM285.646 4.63757C285.778 4.38592 285.946 4.17022 286.163 3.99047C286.379 3.81072 286.62 3.67291 286.896 3.57704C287.161 3.48118 287.438 3.43324 287.726 3.43324H289.091L288.61 3.67291V7.44169H287.756C287.438 7.44169 287.143 7.39975 286.866 7.30987C286.59 7.22 286.343 7.09417 286.133 6.9264C285.922 6.75864 285.754 6.55492 285.64 6.30926C285.52 6.0636 285.459 5.78798 285.459 5.47042C285.447 5.16484 285.514 4.88923 285.646 4.63757ZM285.646 7.60946C285.964 7.83714 286.337 8.00491 286.758 8.11276C287.179 8.22061 287.624 8.27454 288.099 8.27454H288.322L288.604 7.68136V8.5142C288.604 8.9516 288.478 9.26916 288.225 9.46089C287.973 9.64663 287.618 9.7425 287.161 9.7425C286.902 9.7425 286.668 9.71853 286.458 9.6706C286.253 9.62267 286.013 9.53878 285.748 9.41895L285.483 10.2278C285.808 10.3477 286.091 10.4375 286.343 10.4975C286.59 10.5574 286.842 10.5873 287.095 10.5873C287.919 10.5873 288.514 10.3956 288.887 10.0061C289.26 9.61668 289.446 9.0954 289.446 8.43631V2.58242H288.099C287.582 2.58242 287.107 2.65432 286.674 2.80411C286.247 2.95391 285.88 3.15163 285.574 3.40928C285.267 3.66692 285.032 3.9665 284.864 4.32001C284.696 4.67352 284.612 5.05699 284.612 5.47042C284.612 5.96773 284.708 6.39314 284.894 6.74665C285.075 7.09417 285.327 7.38177 285.646 7.60946ZM265.401 1.74358H264.559V0.904746H265.401V1.74358ZM256.67 2.57643H257.542V10.4495H256.826L251.222 3.36733L251.715 4.51774V10.4555H250.844V2.57643H251.679L257.037 9.35304L256.67 8.38838V2.57643ZM223.78 10.5034L220.376 2.57643H221.375L221.862 3.7508L224.189 9.36502L224.411 9.90428L224.327 9.04147L227.015 2.57643H227.977L224.573 10.5034H223.78ZM238.872 2.57643H239.768V10.4495H238.872V2.57643ZM248.456 6.53694C248.456 8.32846 247.17 9.76647 245.36 9.76647C243.55 9.76647 242.239 8.30449 242.239 6.51298V6.48901C242.239 4.69749 243.532 3.25948 245.336 3.25948C247.146 3.25948 248.456 4.72146 248.456 6.51298V6.53694ZM245.354 2.43862C242.943 2.43862 241.301 4.33799 241.301 6.51298V6.53694C241.301 8.70594 242.919 10.5873 245.33 10.5873C247.741 10.5873 249.382 8.68796 249.382 6.51298V6.48901C249.382 4.32001 247.765 2.43862 245.354 2.43862ZM237.399 8.31048V8.33445C237.399 9.68258 236.268 10.5634 234.693 10.5634C233.436 10.5634 232.408 10.1499 231.458 9.30511L232.011 8.65201C232.835 9.39498 233.629 9.76647 234.729 9.76647C235.793 9.76647 236.491 9.20325 236.491 8.43032V8.40635C236.491 7.67536 236.094 7.25595 234.434 6.90843C232.613 6.51298 231.777 5.93178 231.777 4.63757V4.60762C231.777 3.36733 232.871 2.4566 234.38 2.4566C235.535 2.4566 236.359 2.78015 237.164 3.42725L236.647 4.1103C235.914 3.51114 235.174 3.25349 234.362 3.25349C233.334 3.25349 232.679 3.81671 232.679 4.52373V4.55369C232.679 5.29666 233.088 5.71009 234.825 6.08157C236.581 6.46504 237.399 7.10615 237.399 8.31048ZM230.087 10.4495H229.191V2.57643H230.087V10.4495ZM282.092 11.3363H282.934V12.1751H282.092V11.3363ZM280.409 11.3363H281.25V12.1751H280.409V11.3363ZM227.448 30.7374H234.777V34.3744H220.551V31.037L226.948 25.8182C229.336 23.8529 230.274 22.8104 230.274 21.2286C230.274 19.6168 229.203 18.742 227.694 18.742C226.209 18.742 225.193 19.5629 223.768 21.3065L220.797 18.9338C222.691 16.3633 224.531 14.9733 227.965 14.9733C231.945 14.9733 234.585 17.298 234.585 20.8751V20.929C234.585 24.1226 232.937 25.7104 229.528 28.3347L225.325 31.5583L224.507 32.1874L227.448 30.7374ZM290.949 24.8655C290.949 28.143 288.586 30.8213 285.183 30.8213C281.78 30.8213 279.362 28.0891 279.362 24.8116V24.7577C279.362 21.4802 281.725 18.8019 285.129 18.8019C288.532 18.8019 290.955 21.5342 290.955 24.8116V24.8655H290.949ZM285.183 14.9193C279.248 14.9193 274.937 19.3712 274.937 24.8056V24.8596C274.937 30.294 279.194 34.6919 285.129 34.6919C291.063 34.6919 295.375 30.2401 295.375 24.7996V24.7457C295.369 19.3172 291.111 14.9193 285.183 14.9193Z" fill="#E6E6E6"/>
<path d="M246.275 13.6622L247.249 14.5909L246.311 15.5616L245.337 14.6329L246.275 13.6622Z" fill="#29367B"/>
<path d="M248.502 14.6329L249.471 15.5616L250.409 14.5909L249.434 13.6622L248.502 14.6329Z" fill="#B1AEB3"/>
<path d="M247.127 15.8493L247.891 16.5743L248.619 15.8194L247.861 15.0944L247.127 15.8493Z" fill="#D0DA33"/>
<path d="M249.911 16.2622L250.668 16.9872L251.396 16.2323L250.638 15.5133L249.911 16.2622Z" fill="#71BA44"/>
<path d="M245.891 17.005L246.648 17.73L247.376 16.9751L246.618 16.2501L245.891 17.005Z" fill="#D0DA33"/>
<path d="M248.434 17.0884L249.191 17.8134L249.919 17.0584L249.161 16.3394L248.434 17.0884Z" fill="#27B8BE"/>
<path d="M247.44 17.9569L247.976 18.4662L248.487 17.939L247.952 17.4297L247.44 17.9569Z" fill="#71BA44"/>
<path d="M249.455 18.3578L249.984 18.8671L250.495 18.3338L249.966 17.8245L249.455 18.3578Z" fill="#58B75E"/>
<path d="M255.501 14.0189L253.845 14.3214L254.147 15.9656L255.803 15.6631L255.501 14.0189Z" fill="#3088C8"/>
<path d="M253.013 14.767L251.688 15.0088L251.931 16.3289L253.256 16.0872L253.013 14.767Z" fill="#1E3871"/>
<path d="M255.576 16.614L254.251 16.8561L254.494 18.1762L255.819 17.9341L255.576 16.614Z" fill="#27B8BE"/>
<path d="M253.456 16.8584L252.421 17.0474L252.609 18.0728L253.644 17.8839L253.456 16.8584Z" fill="#D0DA33"/>
<path d="M255.466 18.8072L254.431 18.9962L254.619 20.0216L255.654 19.8327L255.466 18.8072Z" fill="#B1AEB3"/>
<path d="M251.906 17.2736L250.871 17.4625L251.059 18.488L252.094 18.299L251.906 17.2736Z" fill="#27B8BE"/>
<path d="M253.781 18.6201L252.746 18.8091L252.935 19.8345L253.97 19.6456L253.781 18.6201Z" fill="#71BA44"/>
<path d="M252.16 18.8022L251.432 18.9351L251.565 19.66L252.293 19.5271L252.16 18.8022Z" fill="#B1AEB3"/>
<path d="M253.555 20.296L252.828 20.4285L252.961 21.1535L253.688 21.021L253.555 20.296Z" fill="#58B75E"/>
<path d="M258.767 19.7122L258.04 21.2222L259.561 21.9412L260.282 20.4313L258.767 19.7122Z" fill="#29367B"/>
<path d="M256.611 19.0167L256.034 20.227L257.248 20.8022L257.832 19.5919L256.611 19.0167Z" fill="#27B8BE"/>
<path d="M257.61 22.003L257.026 23.2133L258.247 23.7885L258.824 22.5782L257.61 22.003Z" fill="#71BA44"/>
<path d="M256.009 21.0917L255.558 22.0384L256.508 22.4877L256.959 21.5411L256.009 21.0917Z" fill="#D0DA33"/>
<path d="M256.489 23.8463L256.038 24.787L256.988 25.2364L257.439 24.2957L256.489 23.8463Z" fill="#D0DA33"/>
<path d="M254.507 20.5258L254.056 21.4725L255.006 21.9219L255.457 20.9752L254.507 20.5258Z" fill="#3088C8"/>
<path d="M255.24 22.7147L254.789 23.6554L255.733 24.1047L256.19 23.164L255.24 22.7147Z" fill="#B1AEB3"/>
<path d="M254.098 22.0478L253.779 22.7128L254.447 23.0244L254.765 22.3593L254.098 22.0478Z" fill="#71BA44"/>
<path d="M254.35 24.0679L254.032 24.7334L254.7 25.0501L255.017 24.3846L254.35 24.0679Z" fill="#27B8BE"/>
<path d="M259.588 26.9502L258.108 27.7531L258.92 29.2211L260.393 28.4122L259.588 26.9502Z" fill="#3088C8"/>
<path d="M258.243 25.1274L257.059 25.7685L257.708 26.9489L258.893 26.3018L258.243 25.1274Z" fill="#27B8BE"/>
<path d="M257.3 28.1298L256.115 28.7709L256.765 29.9513L257.949 29.3042L257.3 28.1298Z" fill="#27B8BE"/>
<path d="M256.539 26.4579L255.619 26.9612L256.124 27.8779L257.044 27.3746L256.539 26.4579Z" fill="#29367B"/>
<path d="M255.312 28.9763L254.386 29.4796L254.891 30.3963L255.817 29.893L255.312 28.9763Z" fill="#58B75E"/>
<path d="M255.654 25.1362L254.728 25.6335L255.233 26.5502L256.159 26.0469L255.654 25.1362Z" fill="#1E3871"/>
<path d="M254.956 27.3286L254.036 27.8319L254.541 28.7486L255.461 28.2453L254.956 27.3286Z" fill="#D0DA33"/>
<path d="M254.423 26.1241L253.779 26.4776L254.134 27.1247L254.783 26.7712L254.423 26.1241Z" fill="#B1AEB3"/>
<path d="M253.434 27.9145L252.791 28.268L253.146 28.9091L253.795 28.5556L253.434 27.9145Z" fill="#27B8BE"/>
<path d="M254.323 33.0867L254.117 34.7457L255.788 34.9515L255.994 33.2926L254.323 33.0867Z" fill="#71BA44"/>
<path d="M254.641 30.8711L254.475 32.203L255.812 32.3681L255.977 31.0362L254.641 30.8711Z" fill="#1E3871"/>
<path d="M252.102 32.7588L251.937 34.0907L253.273 34.2558L253.439 32.9239L252.102 32.7588Z" fill="#27B8BE"/>
<path d="M252.765 31.0056L252.636 32.0402L253.68 32.1689L253.809 31.1342L252.765 31.0056Z" fill="#71BA44"/>
<path d="M250.291 32.3239L250.163 33.3586L251.207 33.4872L251.335 32.4526L250.291 32.3239Z" fill="#B1AEB3"/>
<path d="M252.83 29.4022L252.701 30.4369L253.745 30.5658L253.874 29.5312L252.83 29.4022Z" fill="#B1AEB3"/>
<path d="M250.975 30.7859L250.846 31.8205L251.89 31.9495L252.019 30.9148L250.975 30.7859Z" fill="#71BA44"/>
<path d="M251.555 29.5308L251.464 30.2621L252.198 30.3526L252.289 29.6213L251.555 29.5308Z" fill="#B1AEB3"/>
<path d="M249.704 30.4055L249.613 31.1368L250.347 31.2273L250.438 30.4959L249.704 30.4055Z" fill="#B1AEB3"/>
<path d="M249.348 36.3436L248.115 35.2052L246.973 36.4335L248.205 37.5659L249.348 36.3436Z" fill="#D0DA33"/>
<path d="M249.116 12.9127L247.883 11.7743L246.741 12.9966L247.973 14.135L249.116 12.9127Z" fill="#71BA44"/>
<path d="M250.665 34.5051L249.673 33.5944L248.759 34.577L249.745 35.4877L250.665 34.5051Z" fill="#27B8BE"/>
<path d="M247.5 34.562L246.508 33.6513L245.594 34.6339L246.58 35.5447L247.5 34.562Z" fill="#71BA44"/>
<path d="M248.846 33.3188L248.077 32.6058L247.367 33.3728L248.137 34.0798L248.846 33.3188Z" fill="#3088C8"/>
<path d="M246.061 32.9485L245.292 32.2354L244.576 33.0024L245.346 33.7154L246.061 32.9485Z" fill="#D0DA33"/>
<path d="M249.841 32.0614L249.071 31.3484L248.356 32.1154L249.126 32.8284L249.841 32.0614Z" fill="#D0DA33"/>
<path d="M247.526 32.0981L246.757 31.385L246.041 32.152L246.811 32.865L247.526 32.0981Z" fill="#B1AEB3"/>
<path d="M248.505 31.217L247.964 30.7137L247.465 31.253L248.006 31.7563L248.505 31.217Z" fill="#1E3871"/>
<path d="M246.489 30.8448L245.948 30.3475L245.443 30.8868L245.984 31.3841L246.489 30.8448Z" fill="#B1AEB3"/>
<path d="M241.837 33.3135L240.187 33.6431L240.516 35.2822L242.167 34.9526L241.837 33.3135Z" fill="#3088C8"/>
<path d="M244.042 32.9118L242.721 33.1754L242.986 34.4914L244.306 34.2278L244.042 32.9118Z" fill="#27B8BE"/>
<path d="M241.446 31.1168L240.125 31.3808L240.39 32.6968L241.711 32.4328L241.446 31.1168Z" fill="#71BA44"/>
<path d="M243.334 31.1833L242.302 31.3892L242.508 32.4114L243.539 32.2055L243.334 31.1833Z" fill="#D0DA33"/>
<path d="M244.88 30.7397L243.848 30.9456L244.054 31.9678L245.085 31.7619L244.88 30.7397Z" fill="#29367B"/>
<path d="M242.98 29.426L241.948 29.6319L242.154 30.6541L243.185 30.4482L242.98 29.426Z" fill="#3088C8"/>
<path d="M244.354 29.5843L243.628 29.7289L243.774 30.4516L244.499 30.307L244.354 29.5843Z" fill="#71BA44"/>
<path d="M242.938 28.1152L242.212 28.2602L242.358 28.9828L243.083 28.8378L242.938 28.1152Z" fill="#B1AEB3"/>
<path d="M237.15 29.6472L237.848 28.1253L236.315 27.4303L235.617 28.9522L237.15 29.6472Z" fill="#27B8BE"/>
<path d="M239.323 30.3062L239.883 29.0899L238.65 28.5326L238.091 29.7549L239.323 30.3062Z" fill="#D0DA33"/>
<path d="M238.272 27.3384L238.831 26.1161L237.605 25.5589L237.045 26.7812L238.272 27.3384Z" fill="#3088C8"/>
<path d="M239.359 26.8396L238.925 27.7881L239.883 28.2231L240.317 27.2746L239.359 26.8396Z" fill="#27B8BE"/>
<path d="M241.163 30.6004L241.602 29.6477L240.646 29.2163L240.207 30.169L241.163 30.6004Z" fill="#B1AEB3"/>
<path d="M238.835 24.0977L238.4 25.0462L239.358 25.4815L239.792 24.5329L238.835 24.0977Z" fill="#29367B"/>
<path d="M240.873 27.3767L240.438 28.3253L241.396 28.7605L241.83 27.812L240.873 27.3767Z" fill="#58B75E"/>
<path d="M240.112 25.2089L239.678 26.1572L240.635 26.5927L241.069 25.6444L240.112 25.2089Z" fill="#D0DA33"/>
<path d="M241.783 27.2333L242.09 26.5682L241.417 26.2626L241.11 26.9277L241.783 27.2333Z" fill="#1E3871"/>
<path d="M241.493 25.2112L241.799 24.5402L241.132 24.2406L240.825 24.9056L241.493 25.2112Z" fill="#71BA44"/>
<path d="M236.213 22.4266L237.674 21.5937L236.839 20.1437L235.377 20.9706L236.213 22.4266Z" fill="#27B8BE"/>
<path d="M237.579 24.2232L238.751 23.5581L238.084 22.3897L236.911 23.0548L237.579 24.2232Z" fill="#71BA44"/>
<path d="M238.48 21.2122L239.652 20.5471L238.979 19.3787L237.806 20.0438L238.48 21.2122Z" fill="#1E3871"/>
<path d="M239.269 22.8634L240.177 22.3421L239.66 21.4373L238.746 21.9526L239.269 22.8634Z" fill="#3088C8"/>
<path d="M240.456 20.3286L241.37 19.8074L240.846 18.9026L239.938 19.4179L240.456 20.3286Z" fill="#71BA44"/>
<path d="M240.176 24.1773L241.09 23.662L240.567 22.7513L239.653 23.2666L240.176 24.1773Z" fill="#27B8BE"/>
<path d="M240.834 21.9726L241.747 21.4513L241.224 20.5466L240.316 21.0619L240.834 21.9726Z" fill="#D0DA33"/>
<path d="M241.387 23.1622L242.031 22.7967L241.664 22.1616L241.021 22.5271L241.387 23.1622Z" fill="#B1AEB3"/>
<path d="M242.343 21.3599L242.987 20.9944L242.62 20.3593L241.977 20.7188L242.343 21.3599Z" fill="#71BA44"/>
<path d="M239.88 14.3638L239.702 16.0259L241.376 16.2043L241.554 14.5421L239.88 14.3638Z" fill="#71BA44"/>
<path d="M239.894 16.9416L239.751 18.2761L241.09 18.4189L241.233 17.0844L239.894 16.9416Z" fill="#B1AEB3"/>
<path d="M242.397 15.021L242.253 16.3555L243.593 16.4983L243.736 15.1638L242.397 15.021Z" fill="#27B8BE"/>
<path d="M242.031 17.1175L241.919 18.1541L242.966 18.2658L243.077 17.2292L242.031 17.1175Z" fill="#D0DA33"/>
<path d="M244.488 15.7501L244.377 16.7868L245.423 16.8981L245.534 15.8613L244.488 15.7501Z" fill="#3088C8"/>
<path d="M241.994 18.7123L241.883 19.7489L242.929 19.8605L243.04 18.8239L241.994 18.7123Z" fill="#27B8BE"/>
<path d="M243.821 17.3085L243.71 18.3452L244.756 18.4568L244.868 17.4202L243.821 17.3085Z" fill="#71BA44"/>
<path d="M243.54 18.9023L243.461 19.635L244.197 19.7135L244.275 18.9807L243.54 18.9023Z" fill="#1E3871"/>
<path d="M245.375 17.9948L245.296 18.7277L246.032 18.8057L246.11 18.0728L245.375 17.9948Z" fill="#B1AEB3"/>
<path d="M253.238 25.6995C253.112 25.6276 252.883 25.5138 252.57 25.4119C252.119 25.2681 251.482 25.1603 250.736 25.2801C250.484 25.3221 250.219 25.388 249.943 25.4838C249.919 25.4958 249.889 25.5018 249.865 25.5138C249.726 25.5677 249.582 25.6276 249.444 25.6995C249.323 25.7595 249.203 25.8254 249.083 25.8973C248.812 26.059 248.542 26.2448 248.283 26.4425C247.989 24.657 248.133 23.0033 248.199 22.1884C248.199 22.1824 248.205 22.1824 248.211 22.1824C248.842 22.5779 248.668 23.6923 248.536 24.0099C248.536 24.0159 248.542 24.0219 248.548 24.0159C249.336 23.0872 248.951 22.0626 248.788 21.799C248.782 21.793 248.794 21.787 248.8 21.793C248.915 21.8828 249.005 21.9847 249.089 22.0806C249.336 22.3921 249.426 22.7277 249.45 23.0213C249.462 23.177 249.456 23.3208 249.45 23.4467C249.45 23.4826 249.444 23.5126 249.444 23.5425C249.444 23.5485 249.45 23.5485 249.45 23.5485H249.456C249.666 23.1291 249.768 22.5 249.45 21.8888C249.366 21.7211 249.245 21.5593 249.089 21.3975C249.047 21.3496 248.999 21.3076 248.945 21.2597C248.939 21.2537 248.945 21.2477 248.951 21.2477C248.999 21.2597 249.047 21.2717 249.089 21.2897C249.221 21.3376 249.342 21.4035 249.45 21.4754C249.69 21.6492 249.853 21.8948 249.949 22.1465C250.027 22.3562 250.069 22.5719 250.063 22.7576C250.063 22.7636 250.075 22.7636 250.075 22.7576C250.225 22.2124 250.135 21.8049 249.949 21.5054C249.817 21.2897 249.63 21.1339 249.45 21.026C249.323 20.9541 249.203 20.9002 249.089 20.8642C249.023 20.8463 248.969 20.8343 248.915 20.8283C248.909 20.8283 248.909 20.8163 248.915 20.8163C248.975 20.8103 249.029 20.8103 249.083 20.8043C249.215 20.8043 249.336 20.8163 249.444 20.8343C249.654 20.8762 249.817 20.9481 249.943 21.032C250.141 21.1698 250.243 21.3256 250.28 21.3915C250.286 21.3975 250.292 21.3915 250.292 21.3855C250.261 21.0979 250.129 20.8762 249.943 20.7145C249.798 20.5886 249.624 20.5047 249.444 20.4508C249.323 20.4209 249.203 20.4029 249.083 20.3969C248.921 20.3969 248.77 20.4209 248.638 20.4748C248.632 20.4748 248.626 20.4688 248.632 20.4628C248.746 20.295 248.915 20.1932 249.089 20.1452C249.209 20.1093 249.336 20.0973 249.45 20.1033C249.558 20.1093 249.66 20.1333 249.744 20.1752C249.75 20.1752 249.756 20.1692 249.75 20.1632C249.66 20.0614 249.558 19.9775 249.45 19.9176C249.336 19.8516 249.215 19.8157 249.089 19.8037C248.77 19.7678 248.446 19.9056 248.223 20.2291C248.223 20.2351 248.217 20.2351 248.211 20.2291C248.169 20.1572 248.127 20.0733 248.091 19.9895C248.007 19.7917 247.935 19.564 247.898 19.3424C247.898 19.3364 247.886 19.3364 247.886 19.3424C247.85 19.564 247.778 19.7917 247.688 19.9954C247.652 20.0793 247.61 20.1632 247.568 20.2351C247.568 20.2411 247.562 20.2411 247.556 20.2351C247.177 19.6659 246.467 19.6719 246.034 20.1692C246.028 20.1752 246.034 20.1812 246.04 20.1812C246.329 20.0434 246.876 20.0853 247.147 20.4748C247.153 20.4808 247.147 20.4868 247.141 20.4868C246.72 20.313 246.065 20.4269 245.722 20.8403C245.596 20.9901 245.511 21.1698 245.487 21.3975C245.487 21.4035 245.493 21.4095 245.499 21.4035C245.529 21.3556 245.596 21.2417 245.722 21.1339C245.926 20.9541 246.281 20.7744 246.864 20.8283C246.87 20.8283 246.87 20.8403 246.864 20.8403C246.564 20.8762 245.944 21.1459 245.722 21.751C245.62 22.0206 245.596 22.3562 245.71 22.7696C245.71 22.7756 245.722 22.7756 245.722 22.7696C245.722 22.7576 245.722 22.7516 245.722 22.7396C245.728 22.1884 246.046 21.4454 246.834 21.2537C246.84 21.2537 246.846 21.2597 246.84 21.2657C245.962 22.0386 246.046 22.9913 246.335 23.5485C246.341 23.5545 246.347 23.5545 246.347 23.5425C246.311 23.1171 246.275 22.3622 246.984 21.787C246.99 21.781 246.997 21.787 246.997 21.793C246.834 22.0506 246.449 23.0812 247.237 24.0099C247.243 24.0159 247.249 24.0099 247.249 24.0039C247.117 23.6863 246.936 22.5779 247.574 22.1764C247.58 22.1764 247.586 22.1764 247.586 22.1824C247.658 22.9973 247.796 24.651 247.502 26.4365C246.99 26.0471 246.455 25.7055 245.92 25.5078C245.854 25.4838 245.788 25.4599 245.728 25.4419C245.181 25.2622 244.676 25.2142 244.237 25.2322C243.533 25.2622 242.992 25.4719 242.697 25.6217C242.637 25.6516 242.589 25.6816 242.547 25.6995C242.529 25.7115 242.541 25.7295 242.559 25.7235C242.607 25.7115 242.649 25.6936 242.697 25.6816C243.238 25.5318 243.75 25.4898 244.237 25.5318C244.766 25.5797 245.265 25.7235 245.728 25.9332C246.377 26.2268 246.972 26.6402 247.502 27.0836C246.75 27.7367 246.113 28.3718 245.728 28.5935C245.71 28.6055 245.692 28.6175 245.674 28.6235C245.583 28.4977 245.421 28.4258 245.247 28.4617C245.096 28.4977 244.97 28.6175 244.934 28.7673C244.904 28.9051 244.94 29.0489 245.012 29.1268C245.217 29.3305 245.457 29.3425 245.728 29.2287C246.251 29.013 246.894 28.3239 247.694 27.5989C247.76 27.539 247.826 27.4791 247.898 27.4192C247.965 27.4791 248.037 27.539 248.097 27.5989C248.458 27.9285 248.788 28.246 249.089 28.5216C249.215 28.6355 249.336 28.7373 249.45 28.8332C249.63 28.977 249.792 29.0968 249.949 29.1807C250.255 29.3425 250.514 29.3605 250.743 29.1627C250.755 29.1508 250.767 29.1448 250.779 29.1328C250.833 29.0789 250.893 28.9111 250.857 28.7733C250.839 28.6954 250.797 28.6235 250.736 28.5696C250.682 28.5216 250.616 28.4797 250.544 28.4677C250.37 28.4318 250.207 28.5037 250.117 28.6295C250.063 28.6055 250.009 28.5696 249.943 28.5276C249.798 28.4318 249.63 28.294 249.444 28.1262C249.329 28.0303 249.209 27.9225 249.083 27.8086C248.836 27.5869 248.566 27.3413 248.283 27.0896C248.536 26.8799 248.806 26.6762 249.083 26.4845C249.197 26.4066 249.317 26.3287 249.444 26.2568C249.606 26.1609 249.774 26.071 249.943 25.9871C250.195 25.8673 250.46 25.7655 250.736 25.6816C251.308 25.5198 251.915 25.4659 252.57 25.5677C252.781 25.6037 253.003 25.6516 253.226 25.7235C253.244 25.7295 253.256 25.7115 253.238 25.6995Z" fill="#E6E6E6"/>
<path d="M247.314 43.3478H247.795V39.0398H247.314V43.3478ZM234.663 42.8685L233.911 41.029C234.098 40.8732 234.284 40.7594 234.483 40.6875C234.675 40.6156 234.879 40.5796 235.096 40.5796C235.312 40.5796 235.529 40.6216 235.739 40.7115C235.95 40.7953 236.136 40.9032 236.28 41.035L235.529 42.8745H234.663V42.8685ZM232.005 42.8685H231.518C231.338 42.8685 231.17 42.8445 231.007 42.7966C230.851 42.7486 230.707 42.6707 230.586 42.5749C230.466 42.479 230.37 42.3592 230.304 42.2214C230.238 42.0836 230.201 41.9218 230.201 41.742C230.201 41.5683 230.238 41.4125 230.316 41.2687C230.388 41.1249 230.49 40.9991 230.61 40.8972C230.731 40.7953 230.875 40.7174 231.031 40.6575C231.188 40.6036 231.35 40.5736 231.518 40.5736H232.005V42.8685ZM245.42 42.8685H244.632C244.35 42.8685 244.127 42.8265 243.971 42.7486C243.808 42.6707 243.682 42.5509 243.592 42.3891C243.622 42.2633 243.634 42.1135 243.634 41.9398V40.3939H243.153V42.0176C243.153 42.2933 243.081 42.515 242.931 42.6827C242.78 42.8505 242.558 42.9344 242.257 42.9344C242.119 42.9344 241.987 42.9104 241.872 42.8685C241.758 42.8265 241.656 42.7666 241.572 42.6887C241.488 42.6108 241.421 42.521 241.373 42.4191C241.325 42.3172 241.301 42.2094 241.295 42.0895V40.3939H240.814V42.0536C240.814 42.2034 240.79 42.3292 240.748 42.4311C240.706 42.5329 240.646 42.6168 240.568 42.6827C240.489 42.7486 240.405 42.7966 240.309 42.8265C240.213 42.8565 240.111 42.8685 240.002 42.8685H239.064V40.3879H238.583V42.8685H236.052L236.894 40.8612C236.767 40.7474 236.629 40.6455 236.485 40.5437C236.341 40.4478 236.19 40.3579 236.04 40.286C235.89 40.2141 235.733 40.1542 235.577 40.1123C235.421 40.0703 235.264 40.0524 235.114 40.0524C234.958 40.0524 234.801 40.0763 234.645 40.1123C234.489 40.1542 234.332 40.2141 234.176 40.286C234.02 40.3579 233.875 40.4418 233.731 40.5437C233.587 40.6455 233.454 40.7474 233.328 40.8612L234.176 42.8685H232.504V40.0883H231.735C231.434 40.0883 231.163 40.1303 230.917 40.2141C230.67 40.298 230.46 40.4119 230.286 40.5617C230.111 40.7055 229.973 40.8792 229.877 41.0829C229.781 41.2867 229.732 41.5024 229.732 41.742C229.732 42.0236 229.787 42.2693 229.895 42.473C230.003 42.6767 230.147 42.8385 230.328 42.9703C230.508 43.1021 230.725 43.198 230.965 43.2579C231.206 43.3178 231.464 43.3538 231.729 43.3538H232.017V43.4916C232.017 43.7433 231.945 43.923 231.801 44.0309C231.657 44.1387 231.452 44.1926 231.194 44.1926C231.043 44.1926 230.911 44.1807 230.791 44.1507C230.67 44.1207 230.538 44.0728 230.382 44.0069L230.232 44.4683C230.418 44.5342 230.58 44.5881 230.725 44.624C230.869 44.66 231.013 44.678 231.157 44.678C231.626 44.678 231.969 44.5641 232.186 44.3424C232.396 44.1207 232.504 43.8211 232.504 43.4437V43.3538H240.002C240.237 43.3538 240.441 43.3059 240.628 43.204C240.808 43.1021 240.958 42.9703 241.073 42.8026C241.187 42.9943 241.349 43.1441 241.548 43.2519C241.752 43.3598 241.987 43.4137 242.263 43.4137C242.552 43.4137 242.798 43.3658 243.003 43.2639C243.207 43.1621 243.364 43.0123 243.472 42.8026C243.514 42.8685 243.562 42.9404 243.622 43.0063C243.682 43.0722 243.754 43.1321 243.851 43.186C243.941 43.24 244.055 43.2819 244.187 43.3119C244.29 43.3358 244.404 43.3478 244.536 43.3538V43.3598H245.931V39.0518H245.45V42.8685H245.42ZM288.73 42.6588C288.664 42.8145 288.574 42.9464 288.46 43.0602C288.346 43.174 288.213 43.2579 288.057 43.3238C287.901 43.3838 287.732 43.4197 287.552 43.4197C287.377 43.4197 287.209 43.3838 287.059 43.3178C286.908 43.2519 286.776 43.1621 286.668 43.0482C286.56 42.9344 286.47 42.8026 286.409 42.6468C286.349 42.497 286.313 42.3352 286.313 42.1614C286.313 41.9877 286.343 41.8259 286.409 41.6701C286.47 41.5143 286.56 41.3825 286.668 41.2687C286.776 41.1548 286.908 41.065 287.059 40.9931C287.209 40.9272 287.377 40.8912 287.558 40.8912C287.744 40.8912 287.913 40.9212 288.069 40.9871C288.225 41.053 288.358 41.1369 288.472 41.2507C288.586 41.3646 288.676 41.4964 288.742 41.6522C288.809 41.8079 288.839 41.9757 288.839 42.1614C288.833 42.3352 288.797 42.503 288.73 42.6588ZM284.052 42.6588C283.986 42.8145 283.896 42.9464 283.782 43.0602C283.668 43.174 283.535 43.2579 283.379 43.3238C283.223 43.3838 283.054 43.4197 282.874 43.4197C282.7 43.4197 282.531 43.3838 282.381 43.3178C282.23 43.2519 282.098 43.1621 281.99 43.0482C281.882 42.9344 281.792 42.8026 281.731 42.6468C281.671 42.497 281.635 42.3352 281.635 42.1614C281.635 41.9877 281.665 41.8259 281.731 41.6701C281.792 41.5143 281.882 41.3825 281.99 41.2687C282.098 41.1548 282.23 41.065 282.381 40.9931C282.531 40.9272 282.699 40.8912 282.88 40.8912C283.066 40.8912 283.235 40.9212 283.391 40.9871C283.547 41.053 283.68 41.1369 283.794 41.2507C283.908 41.3646 283.998 41.4964 284.064 41.6522C284.131 41.8079 284.161 41.9757 284.161 42.1614C284.149 42.3352 284.119 42.503 284.052 42.6588ZM272.309 42.8685H271.834C271.654 42.8685 271.486 42.8445 271.323 42.7906C271.167 42.7367 271.029 42.6648 270.908 42.5629C270.788 42.467 270.698 42.3472 270.626 42.2034C270.56 42.0596 270.524 41.8978 270.524 41.7181C270.524 41.5443 270.56 41.3885 270.638 41.2447C270.71 41.1009 270.812 40.9811 270.932 40.8792C271.053 40.7774 271.197 40.6995 271.353 40.6455C271.51 40.5916 271.672 40.5617 271.834 40.5617H272.309V42.8685ZM290.823 42.8685H289.163C289.266 42.6468 289.314 42.4131 289.314 42.1614C289.314 41.9158 289.266 41.6821 289.175 41.4664C289.085 41.2507 288.959 41.065 288.803 40.9092C288.646 40.7534 288.46 40.6276 288.243 40.5377C288.027 40.4478 287.798 40.3999 287.546 40.3999C287.305 40.3999 287.077 40.4478 286.872 40.5377C286.662 40.6276 286.482 40.7534 286.325 40.9152C286.169 41.071 286.049 41.2567 285.958 41.4724C285.868 41.6821 285.826 41.9098 285.826 42.1555C285.826 42.2813 285.838 42.4071 285.868 42.5269C285.892 42.6468 285.928 42.7606 285.976 42.8685H284.479C284.582 42.6468 284.63 42.4131 284.63 42.1614C284.63 41.9158 284.588 41.6821 284.491 41.4664C284.401 41.2507 284.275 41.065 284.119 40.9092C283.962 40.7534 283.776 40.6276 283.559 40.5377C283.343 40.4478 283.114 40.3999 282.862 40.3999C282.621 40.3999 282.393 40.4478 282.188 40.5377C281.978 40.6276 281.798 40.7534 281.641 40.9152C281.485 41.071 281.365 41.2567 281.274 41.4724C281.184 41.6821 281.142 41.9098 281.142 42.1555C281.142 42.2813 281.154 42.4071 281.184 42.5269C281.208 42.6468 281.244 42.7606 281.292 42.8685H279.759V39.0398H279.278V42.8685H277.739V42.1315C277.739 41.9457 277.715 41.772 277.667 41.6042C277.619 41.4365 277.54 41.2986 277.438 41.1788C277.312 41.041 277.174 40.9331 277.017 40.8672C276.861 40.8013 276.663 40.7654 276.422 40.7654H274.288L275.195 39.0338H274.672L273.746 40.7594C273.764 40.8612 273.788 40.9511 273.825 41.029C273.861 41.1069 273.909 41.1788 273.969 41.2447H276.428C276.578 41.2447 276.711 41.2687 276.825 41.3166C276.933 41.3646 277.023 41.4245 277.096 41.5024C277.162 41.5803 277.21 41.6761 277.234 41.778C277.258 41.8798 277.27 41.9997 277.27 42.1255V42.8625H272.802V40.0823H272.045C271.744 40.0823 271.468 40.1243 271.227 40.2022C270.98 40.286 270.77 40.3999 270.602 40.5437C270.427 40.6875 270.295 40.8613 270.199 41.065C270.103 41.2627 270.055 41.4784 270.055 41.7121C270.055 41.9937 270.109 42.2393 270.217 42.4431C270.325 42.6468 270.469 42.8145 270.65 42.9464C270.83 43.0782 271.041 43.174 271.281 43.24C271.522 43.3059 271.774 43.3358 272.039 43.3358H281.611C281.768 43.5036 281.954 43.6354 282.17 43.7373C282.387 43.8331 282.621 43.8871 282.874 43.8871C283.132 43.8871 283.373 43.8391 283.595 43.7433C283.818 43.6474 284.01 43.5156 284.173 43.3418H286.295C286.452 43.5096 286.638 43.6414 286.854 43.7433C287.071 43.8391 287.305 43.8931 287.558 43.8931C287.816 43.8931 288.057 43.8451 288.279 43.7492C288.502 43.6534 288.694 43.5216 288.857 43.3478H291.31V39.0398H290.829V42.8685H290.823ZM292.711 43.3478H293.192V39.0398H292.711V43.3478ZM257.145 44.4083H257.638V43.917H257.145V44.4083ZM261.865 42.8685L261.113 41.029C261.3 40.8732 261.486 40.7594 261.685 40.6875C261.877 40.6156 262.081 40.5796 262.298 40.5796C262.514 40.5796 262.731 40.6216 262.941 40.7115C263.152 40.7953 263.338 40.9032 263.482 41.035L262.731 42.8745H261.865V42.8685ZM265.286 42.8685H263.236L264.078 40.8612C263.951 40.7474 263.813 40.6455 263.669 40.5437C263.525 40.4478 263.374 40.3579 263.224 40.286C263.074 40.2141 262.917 40.1542 262.761 40.1123C262.605 40.0703 262.448 40.0524 262.298 40.0524C262.142 40.0524 261.985 40.0763 261.829 40.1123C261.673 40.1542 261.516 40.2141 261.36 40.286C261.204 40.3579 261.053 40.4418 260.915 40.5437C260.771 40.6455 260.638 40.7474 260.512 40.8612L261.36 42.8685H259.562V40.0883H259.081V43.4497C259.081 43.5875 259.075 43.7013 259.063 43.7972C259.051 43.893 259.027 43.965 258.991 44.0249C258.955 44.0848 258.913 44.1267 258.853 44.1507C258.792 44.1747 258.72 44.1926 258.624 44.1926C258.582 44.1926 258.54 44.1926 258.51 44.1866C258.48 44.1807 258.432 44.1747 258.378 44.1567L258.251 44.618C258.384 44.654 258.516 44.672 258.642 44.672C258.817 44.672 258.961 44.642 259.081 44.5881C259.201 44.5342 259.298 44.4503 259.37 44.3424C259.442 44.2346 259.496 44.1088 259.526 43.959C259.556 43.8092 259.574 43.6414 259.574 43.4497V43.3478H265.785V39.0398H265.304V42.8685H265.286ZM228.644 40.5137C228.518 40.3759 228.374 40.2681 228.211 40.1962C228.055 40.1243 227.856 40.0943 227.628 40.0943H227.273V40.5736H227.694C227.808 40.5736 227.923 40.5976 228.025 40.6515C228.127 40.6995 228.217 40.7654 228.283 40.8493C228.349 40.9332 228.398 41.023 228.428 41.1249C228.452 41.2267 228.47 41.3466 228.47 41.4844V42.8745H226.203V43.3538H228.951V41.4604C228.951 41.2747 228.927 41.0949 228.873 40.9332C228.824 40.7654 228.746 40.6276 228.644 40.5137ZM255.383 44.4143H255.876V43.917H255.383V44.4143ZM252.449 42.8685H251.974C251.794 42.8685 251.625 42.8445 251.463 42.7906C251.306 42.7367 251.168 42.6648 251.048 42.5629C250.928 42.467 250.837 42.3472 250.765 42.2034C250.699 42.0596 250.663 41.8978 250.663 41.7181C250.663 41.5443 250.699 41.3885 250.777 41.2447C250.85 41.1009 250.952 40.9811 251.072 40.8792C251.192 40.7774 251.337 40.6995 251.493 40.6455C251.649 40.5916 251.812 40.5617 251.974 40.5617H252.449V42.8685ZM257.638 40.0943H257.157V42.8745H255.335V40.0943H254.854V42.8745H252.936V40.0943H252.178C251.878 40.0943 251.601 40.1363 251.355 40.2141C251.108 40.298 250.898 40.4119 250.729 40.5557C250.555 40.6995 250.423 40.8732 250.326 41.0769C250.23 41.2747 250.182 41.4904 250.182 41.7241C250.182 42.0057 250.236 42.2513 250.344 42.455C250.453 42.6588 250.597 42.8265 250.777 42.9583C250.958 43.0902 251.168 43.186 251.409 43.2519C251.649 43.3178 251.902 43.3478 252.166 43.3478H257.632V40.0943H257.638ZM254.535 44.4143H255.028V43.917H254.535V44.4143ZM222.283 39.0458H221.783V39.5371H222.277V39.0458H222.283ZM271.949 39.0458H271.455V39.5371H271.949V39.0458ZM252.93 39.0458H252.437V39.5371H252.93V39.0458ZM225.127 44.4143H225.62V43.917H225.127V44.4143ZM252.082 39.0458H251.589V39.5371H252.082V39.0458ZM223.124 39.0458H222.631V39.5371H223.124V39.0458ZM224.285 44.4143H224.778V43.917H224.285V44.4143ZM222.643 42.8685H222.168C221.988 42.8685 221.82 42.8445 221.657 42.7906C221.501 42.7367 221.357 42.6648 221.242 42.5629C221.122 42.467 221.032 42.3472 220.96 42.2034C220.894 42.0596 220.857 41.8978 220.857 41.7181C220.857 41.5443 220.894 41.3885 220.972 41.2447C221.044 41.1009 221.146 40.9811 221.266 40.8792C221.387 40.7774 221.531 40.6995 221.687 40.6455C221.844 40.5916 222.006 40.5617 222.168 40.5617H222.643V42.8685ZM225.529 40.0943H225.048V42.8745H223.13V40.0943H222.367C222.066 40.0943 221.789 40.1363 221.549 40.2141C221.302 40.298 221.092 40.4119 220.924 40.5557C220.749 40.6995 220.617 40.8732 220.521 41.0769C220.425 41.2747 220.376 41.4904 220.376 41.7241C220.376 42.0057 220.431 42.2513 220.539 42.455C220.647 42.6588 220.791 42.8265 220.972 42.9583C221.152 43.0902 221.363 43.186 221.603 43.2519C221.844 43.3178 222.096 43.3478 222.361 43.3478H225.523V40.0943H225.529ZM267.174 43.3478H267.655V39.0398H267.174V43.3478ZM272.79 39.0458H272.297V39.5371H272.79V39.0458Z" fill="#E6E6E6"/>
<path d="M220.853 46.5081H221.454V48.2337L223.095 46.5081H223.841L222.404 47.982L223.901 49.9353H223.167L221.995 48.3954L221.454 48.9407V49.9353H220.853V46.5081Z" fill="#E6E6E6"/>
<path d="M225.06 46.5081H224.453V49.9353H225.06V46.5081Z" fill="#E6E6E6"/>
<path d="M225.991 46.5081H226.556L228.402 48.8808V46.5081H228.998V49.9353H228.493L226.586 47.4967V49.9353H225.991V46.5081Z" fill="#E6E6E6"/>
<path d="M229.75 48.2325V48.2205C229.75 47.2618 230.49 46.447 231.53 46.447C232.132 46.447 232.498 46.6147 232.853 46.9143L232.468 47.3697C232.204 47.142 231.939 47.0042 231.5 47.0042C230.863 47.0042 230.382 47.5554 230.382 48.2145V48.2265C230.382 48.9335 230.851 49.4488 231.554 49.4488C231.879 49.4488 232.174 49.3469 232.384 49.1912V48.55H231.5V48.0288H232.967V49.4668C232.625 49.7544 232.138 50 231.53 50C230.46 49.994 229.75 49.2271 229.75 48.2325Z" fill="#E6E6E6"/>
<path d="M235.098 49.3901C235.819 49.3901 236.294 48.9047 236.294 48.2337V48.2217C236.294 47.5506 235.819 47.0533 235.098 47.0533H234.418V49.3841H235.098V49.3901ZM233.811 46.5081H235.098C236.18 46.5081 236.932 47.245 236.932 48.2097V48.2217C236.932 49.1863 236.18 49.9353 235.098 49.9353H233.811V46.5081Z" fill="#E6E6E6"/>
<path d="M240.464 48.2325V48.2205C240.464 47.5554 239.976 46.9982 239.291 46.9982C238.606 46.9982 238.131 47.5434 238.131 48.2085V48.2205C238.131 48.8856 238.618 49.4428 239.303 49.4428C239.988 49.4428 240.464 48.8976 240.464 48.2325ZM237.493 48.2325V48.2205C237.493 47.2558 238.245 46.447 239.303 46.447C240.361 46.447 241.101 47.2439 241.101 48.2085V48.2205C241.101 49.1852 240.355 49.994 239.291 49.994C238.233 49.994 237.493 49.1972 237.493 48.2325Z" fill="#E6E6E6"/>
<path d="M241.854 46.5081H242.498L243.55 48.1258L244.596 46.5081H245.246V49.9353H244.638V47.4787L243.55 49.0965H243.532L242.45 47.4847V49.9353H241.854V46.5081Z" fill="#E6E6E6"/>
<path d="M250.427 48.2325V48.2205C250.427 47.5554 249.94 46.9982 249.255 46.9982C248.569 46.9982 248.094 47.5434 248.094 48.2085V48.2205C248.094 48.8856 248.581 49.4428 249.267 49.4428C249.946 49.4428 250.427 48.8976 250.427 48.2325ZM247.457 48.2325V48.2205C247.457 47.2558 248.209 46.447 249.267 46.447C250.325 46.447 251.065 47.2439 251.065 48.2085V48.2205C251.065 49.1852 250.313 49.994 249.255 49.994C248.197 49.994 247.457 49.1972 247.457 48.2325Z" fill="#E6E6E6"/>
<path d="M251.811 46.5081H254.378V47.0533H252.418V47.994H254.156V48.5392H252.418V49.9353H251.811V46.5081Z" fill="#E6E6E6"/>
<path d="M256.29 49.437L256.657 49.0055C256.988 49.2872 257.318 49.4489 257.745 49.4489C258.118 49.4489 258.358 49.2752 258.358 49.0175V49.0115C258.358 48.7659 258.22 48.6341 257.583 48.4843C256.849 48.3105 256.434 48.0948 256.434 47.4597V47.4537C256.434 46.8665 256.927 46.4591 257.613 46.4591C258.118 46.4591 258.515 46.6089 258.864 46.8905L258.539 47.3458C258.226 47.1182 257.92 46.9923 257.601 46.9923C257.246 46.9923 257.042 47.1721 257.042 47.3998V47.4118C257.042 47.6754 257.198 47.7952 257.859 47.951C258.587 48.1248 258.966 48.3884 258.966 48.9576V48.9696C258.966 49.6107 258.461 49.9942 257.733 49.9942C257.204 49.9822 256.705 49.8024 256.29 49.437Z" fill="#E6E6E6"/>
<path d="M261.686 48.5747L261.091 47.2026L260.501 48.5747H261.686ZM260.82 46.4836H261.379L262.894 49.9348H262.257L261.908 49.1079H260.279L259.924 49.9348H259.305L260.82 46.4836Z" fill="#E6E6E6"/>
<path d="M263.255 48.4793V46.5081H263.863V48.4554C263.863 49.0905 264.193 49.432 264.735 49.432C265.27 49.432 265.6 49.1085 265.6 48.4793V46.5081H266.208V48.4554C266.208 49.4799 265.624 49.9952 264.723 49.9952C263.827 49.9892 263.255 49.4739 263.255 48.4793Z" fill="#E6E6E6"/>
<path d="M268.379 49.3901C269.1 49.3901 269.575 48.9047 269.575 48.2337V48.2217C269.575 47.5506 269.1 47.0533 268.379 47.0533H267.699V49.3841H268.379V49.3901ZM267.092 46.5081H268.379C269.461 46.5081 270.212 47.245 270.212 48.2097V48.2217C270.212 49.1863 269.461 49.9353 268.379 49.9353H267.092V46.5081Z" fill="#E6E6E6"/>
<path d="M271.58 46.5081H270.973V49.9353H271.58V46.5081Z" fill="#E6E6E6"/>
<path d="M276.068 48.5747L275.473 47.2026L274.884 48.5747H276.068ZM275.202 46.4836H275.761L277.277 49.9348H276.639L276.291 49.1079H274.661L274.306 49.9348H273.687L275.202 46.4836Z" fill="#E6E6E6"/>
<path d="M279.345 48.2097C279.778 48.2097 280.054 47.982 280.054 47.6345V47.6225C280.054 47.257 279.79 47.0533 279.339 47.0533H278.461V48.2037H279.345V48.2097ZM277.854 46.5081H279.393C279.826 46.5081 280.168 46.6339 280.391 46.8496C280.571 47.0353 280.68 47.293 280.68 47.5866V47.5985C280.68 48.1618 280.337 48.4973 279.856 48.6351L280.788 49.9353H280.072L279.224 48.737H279.212H278.461V49.9353H277.854V46.5081Z" fill="#E6E6E6"/>
<path d="M283.607 48.5747L283.012 47.2026L282.423 48.5747H283.607ZM282.741 46.4836H283.301L284.816 49.9348H284.178L283.83 49.1079H282.2L281.845 49.9348H281.226L282.741 46.4836Z" fill="#E6E6E6"/>
<path d="M286.992 49.402C287.407 49.402 287.659 49.2403 287.659 48.9287V48.9167C287.659 48.6291 287.431 48.4554 286.95 48.4554H285.988V49.3961H286.992V49.402ZM286.812 47.9521C287.202 47.9521 287.461 47.8023 287.461 47.4847V47.4727C287.461 47.2031 287.245 47.0353 286.854 47.0353H285.982V47.9461H286.812V47.9521ZM285.393 46.5081H286.938C287.329 46.5081 287.641 46.6159 287.84 46.8136C287.99 46.9634 288.068 47.1492 288.068 47.3828V47.3948C288.068 47.8083 287.834 48.024 287.575 48.1618C287.978 48.2996 288.261 48.5273 288.261 48.9946V49.0066C288.261 49.6177 287.756 49.9473 286.986 49.9473H285.393V46.5081Z" fill="#E6E6E6"/>
<path d="M289.621 46.5081H289.014V49.9353H289.621V46.5081Z" fill="#E6E6E6"/>
<path d="M292.578 48.5747L291.983 47.2026L291.394 48.5747H292.578ZM291.712 46.4836H292.272L293.787 49.9348H293.15L292.801 49.1079H291.171L290.817 49.9348H290.197L291.712 46.4836Z" fill="#E6E6E6"/>
<defs>
<linearGradient id="paint0_linear_70_23565" x1="194.699" y1="38.9833" x2="126.391" y2="37.8317" gradientUnits="userSpaceOnUse">
<stop offset="0.13" stop-color="#DDD9D7"/>
<stop offset="0.16" stop-color="#CECBC9"/>
<stop offset="0.24" stop-color="#A7A7A6"/>
<stop offset="0.25" stop-color="#A2A2A1"/>
<stop offset="0.28" stop-color="#A9A9A9"/>
<stop offset="0.32" stop-color="#BBBBBB"/>
<stop offset="0.35" stop-color="#ACACAC"/>
<stop offset="0.42" stop-color="#808181"/>
<stop offset="0.48" stop-color="#8D8E8E"/>
<stop offset="0.6" stop-color="#B1B1B1"/>
<stop offset="0.7" stop-color="#D6D6D6"/>
<stop offset="0.72" stop-color="#CCCDCD"/>
<stop offset="0.77" stop-color="#B2B4B4"/>
<stop offset="0.83" stop-color="#878B8C"/>
<stop offset="0.9" stop-color="#4D5455"/>
<stop offset="0.92" stop-color="#707475"/>
<stop offset="0.96" stop-color="#9FA1A1"/>
<stop offset="0.98" stop-color="#BDBDBD"/>
<stop offset="1" stop-color="#C8C7C7"/>
</linearGradient>
<linearGradient id="paint1_linear_70_23565" x1="128.352" y1="7.27345" x2="188.447" y2="140.101" gradientUnits="userSpaceOnUse">
<stop offset="0.03" stop-color="#4E4D4D"/>
<stop offset="0.04" stop-color="#636363"/>
<stop offset="0.06" stop-color="#737474"/>
<stop offset="0.08" stop-color="#7F7F80"/>
<stop offset="0.11" stop-color="#858687"/>
<stop offset="0.18" stop-color="#878889"/>
<stop offset="0.35" stop-color="#4E4D4D"/>
<stop offset="0.39" stop-color="#6B6A6A"/>
<stop offset="0.45" stop-color="#888787"/>
<stop offset="0.51" stop-color="#9F9E9E"/>
<stop offset="0.58" stop-color="#B2B1B1"/>
<stop offset="0.66" stop-color="#BEBDBD"/>
<stop offset="0.77" stop-color="#C6C5C5"/>
<stop offset="1" stop-color="#C8C7C7"/>
</linearGradient>
<linearGradient id="paint2_linear_70_23565" x1="167.259" y1="42.2951" x2="113.228" y2="10.4171" gradientUnits="userSpaceOnUse">
<stop stop-color="#DDD9D7"/>
<stop offset="0.04" stop-color="#B3B2B1"/>
<stop offset="0.12" stop-color="#6A6F6F"/>
<stop offset="0.16" stop-color="#4D5455"/>
<stop offset="0.73" stop-color="#7D8386"/>
<stop offset="0.82" stop-color="#868B8F"/>
<stop offset="0.84" stop-color="#8B9093"/>
<stop offset="0.86" stop-color="#9A9DA0"/>
<stop offset="0.88" stop-color="#B3B4B5"/>
<stop offset="0.9" stop-color="#C8C7C7"/>
</linearGradient>
<linearGradient id="paint3_linear_70_23565" x1="171.518" y1="34.3722" x2="108.96" y2="-6.77455" gradientUnits="userSpaceOnUse">
<stop offset="0.03" stop-color="#676767"/>
<stop offset="0.09" stop-color="#7E7E7D"/>
<stop offset="0.16" stop-color="#929291"/>
<stop offset="0.23" stop-color="#9E9E9D"/>
<stop offset="0.29" stop-color="#A2A2A1"/>
<stop offset="0.35" stop-color="#9A9A99"/>
<stop offset="0.44" stop-color="#838383"/>
<stop offset="0.52" stop-color="#676767"/>
<stop offset="0.53" stop-color="#6D6D6D"/>
<stop offset="0.59" stop-color="#979797"/>
<stop offset="0.64" stop-color="#B1B1B1"/>
<stop offset="0.67" stop-color="#BBBBBB"/>
<stop offset="0.71" stop-color="#B9B9B9"/>
<stop offset="0.73" stop-color="#B2B3B4"/>
<stop offset="0.74" stop-color="#A6A8AA"/>
<stop offset="0.75" stop-color="#95999C"/>
<stop offset="0.76" stop-color="#868B8F"/>
<stop offset="0.79" stop-color="#8B9093"/>
<stop offset="0.83" stop-color="#9A9DA0"/>
<stop offset="0.87" stop-color="#B3B4B5"/>
<stop offset="0.9" stop-color="#C8C7C7"/>
<stop offset="0.92" stop-color="#C3C2C3"/>
<stop offset="0.95" stop-color="#B4B4B6"/>
<stop offset="0.98" stop-color="#9B9EA0"/>
<stop offset="1" stop-color="#868B8F"/>
</linearGradient>
</defs>
</svg>
